<svg width="1082" height="188" viewBox="0 0 1082 188" fill="none" xmlns="http://www.w3.org/2000/svg">
<path d="M7.57959 114.736L5.40674 116.994V123H3.06299V105.227H5.40674V114.016L13.3047 105.227H16.1367L9.14209 113.076L16.686 123H13.8784L7.57959 114.736ZM23.5464 123.244C21.756 123.244 20.2993 122.658 19.1763 121.486C18.0532 120.306 17.4917 118.732 17.4917 116.762V116.347C17.4917 115.037 17.7399 113.869 18.2363 112.844C18.7409 111.81 19.4408 111.005 20.3359 110.427C21.2393 109.841 22.2158 109.548 23.2656 109.548C24.9827 109.548 26.3174 110.113 27.2695 111.245C28.2217 112.376 28.6978 113.995 28.6978 116.103V117.043H19.75C19.7826 118.345 20.161 119.399 20.8853 120.205C21.6177 121.002 22.5454 121.401 23.6685 121.401C24.466 121.401 25.1414 121.238 25.6948 120.913C26.2482 120.587 26.7324 120.156 27.1475 119.619L28.5269 120.693C27.4201 122.394 25.7599 123.244 23.5464 123.244ZM23.2656 111.403C22.3542 111.403 21.5892 111.737 20.9707 112.404C20.3522 113.063 19.9697 113.991 19.8232 115.188H26.4395V115.017C26.3743 113.869 26.0651 112.982 25.5117 112.355C24.9583 111.721 24.2096 111.403 23.2656 111.403ZM33.6538 109.792V124.526C33.6538 127.065 32.5023 128.334 30.1992 128.334C29.7028 128.334 29.243 128.261 28.8198 128.115V126.308C29.0802 126.373 29.422 126.406 29.8452 126.406C30.3498 126.406 30.7323 126.267 30.9927 125.991C31.2612 125.722 31.3955 125.25 31.3955 124.575V109.792H33.6538ZM31.1636 106.289C31.1636 105.931 31.2734 105.625 31.4932 105.373C31.721 105.113 32.0506 104.982 32.4819 104.982C32.9214 104.982 33.255 105.109 33.4829 105.361C33.7108 105.613 33.8247 105.922 33.8247 106.289C33.8247 106.655 33.7108 106.96 33.4829 107.204C33.255 107.448 32.9214 107.57 32.4819 107.57C32.0425 107.57 31.7129 107.448 31.4932 107.204C31.2734 106.96 31.1636 106.655 31.1636 106.289ZM45.458 121.694C44.5791 122.727 43.2892 123.244 41.5884 123.244C40.1805 123.244 39.1063 122.837 38.3657 122.023C37.6333 121.201 37.263 119.989 37.2549 118.386V109.792H39.5132V118.325C39.5132 120.327 40.327 121.328 41.9546 121.328C43.6799 121.328 44.8273 120.685 45.397 119.399V109.792H47.6553V123H45.5068L45.458 121.694ZM53.4292 109.792V124.526C53.4292 127.065 52.2777 128.334 49.9746 128.334C49.4782 128.334 49.0184 128.261 48.5952 128.115V126.308C48.8556 126.373 49.1974 126.406 49.6206 126.406C50.1252 126.406 50.5076 126.267 50.7681 125.991C51.0366 125.722 51.1709 125.25 51.1709 124.575V109.792H53.4292ZM50.939 106.289C50.939 105.931 51.0488 105.625 51.2686 105.373C51.4964 105.113 51.826 104.982 52.2573 104.982C52.6968 104.982 53.0304 105.109 53.2583 105.361C53.4862 105.613 53.6001 105.922 53.6001 106.289C53.6001 106.655 53.4862 106.96 53.2583 107.204C53.0304 107.448 52.6968 107.57 52.2573 107.57C51.8179 107.57 51.4883 107.448 51.2686 107.204C51.0488 106.96 50.939 106.655 50.939 106.289ZM65.2334 121.694C64.3545 122.727 63.0646 123.244 61.3638 123.244C59.9559 123.244 58.8817 122.837 58.1411 122.023C57.4087 121.201 57.0384 119.989 57.0303 118.386V109.792H59.2886V118.325C59.2886 120.327 60.1024 121.328 61.73 121.328C63.4552 121.328 64.6027 120.685 65.1724 119.399V109.792H67.4307V123H65.2822L65.2334 121.694ZM77.2573 111.818C76.9155 111.761 76.5452 111.733 76.1465 111.733C74.6654 111.733 73.6603 112.364 73.1313 113.625V123H70.873V109.792H73.0703L73.1069 111.318C73.8475 110.138 74.8973 109.548 76.2563 109.548C76.6958 109.548 77.0295 109.605 77.2573 109.719V111.818ZM87.0107 123C86.8805 122.74 86.7747 122.276 86.6934 121.608C85.6436 122.699 84.3903 123.244 82.9336 123.244C81.6315 123.244 80.5614 122.878 79.7231 122.146C78.8931 121.405 78.478 120.469 78.478 119.338C78.478 117.963 78.9989 116.896 80.0405 116.14C81.0903 115.375 82.5633 114.992 84.4595 114.992H86.6567V113.955C86.6567 113.165 86.4207 112.539 85.9487 112.075C85.4767 111.603 84.7809 111.367 83.8613 111.367C83.0557 111.367 82.3802 111.57 81.835 111.977C81.2897 112.384 81.0171 112.876 81.0171 113.454H78.7466C78.7466 112.795 78.9785 112.16 79.4424 111.55C79.9144 110.931 80.5492 110.443 81.3467 110.085C82.1523 109.727 83.0353 109.548 83.9956 109.548C85.5174 109.548 86.7096 109.93 87.5723 110.695C88.4349 111.452 88.8825 112.498 88.915 113.833V119.912C88.915 121.124 89.0697 122.089 89.3789 122.805V123H87.0107ZM83.2632 121.279C83.9712 121.279 84.6426 121.096 85.2773 120.729C85.9121 120.363 86.3719 119.887 86.6567 119.301V116.591H84.8867C82.1198 116.591 80.7363 117.401 80.7363 119.021C80.7363 119.729 80.9723 120.282 81.4443 120.681C81.9163 121.079 82.5226 121.279 83.2632 121.279ZM94.5913 109.792L94.6646 111.452C95.6737 110.183 96.992 109.548 98.6196 109.548C101.411 109.548 102.819 111.123 102.843 114.272V123H100.585V114.26C100.577 113.308 100.357 112.604 99.9258 112.148C99.5026 111.692 98.8394 111.464 97.936 111.464C97.2036 111.464 96.5607 111.66 96.0073 112.05C95.4539 112.441 95.0226 112.954 94.7134 113.588V123H92.4551V109.792H94.5913ZM114.574 109.792L114.635 111.257C115.604 110.118 116.91 109.548 118.554 109.548C120.401 109.548 121.658 110.256 122.326 111.672C122.765 111.037 123.335 110.524 124.035 110.134C124.743 109.743 125.577 109.548 126.537 109.548C129.434 109.548 130.907 111.082 130.956 114.15V123H128.698V114.284C128.698 113.34 128.482 112.636 128.051 112.172C127.619 111.7 126.895 111.464 125.878 111.464C125.04 111.464 124.344 111.717 123.791 112.221C123.237 112.718 122.916 113.389 122.826 114.235V123H120.556V114.345C120.556 112.425 119.616 111.464 117.736 111.464C116.255 111.464 115.242 112.095 114.696 113.356V123H112.438V109.792H114.574ZM142.528 121.694C141.649 122.727 140.36 123.244 138.659 123.244C137.251 123.244 136.177 122.837 135.436 122.023C134.704 121.201 134.333 119.989 134.325 118.386V109.792H136.583V118.325C136.583 120.327 137.397 121.328 139.025 121.328C140.75 121.328 141.898 120.685 142.467 119.399V109.792H144.726V123H142.577L142.528 121.694ZM150.304 109.792L150.377 111.452C151.387 110.183 152.705 109.548 154.333 109.548C157.124 109.548 158.532 111.123 158.556 114.272V123H156.298V114.26C156.29 113.308 156.07 112.604 155.639 112.148C155.215 111.692 154.552 111.464 153.649 111.464C152.917 111.464 152.274 111.66 151.72 112.05C151.167 112.441 150.736 112.954 150.426 113.588V123H148.168V109.792H150.304ZM161.425 116.286C161.425 114.227 161.901 112.591 162.853 111.379C163.805 110.158 165.067 109.548 166.637 109.548C168.249 109.548 169.506 110.118 170.409 111.257L170.519 109.792H172.582V122.683C172.582 124.392 172.073 125.738 171.056 126.723C170.047 127.708 168.688 128.2 166.979 128.2C166.027 128.2 165.095 127.997 164.184 127.59C163.272 127.183 162.576 126.625 162.096 125.917L163.268 124.562C164.236 125.759 165.421 126.357 166.82 126.357C167.919 126.357 168.773 126.048 169.384 125.429C170.002 124.811 170.312 123.94 170.312 122.817V121.682C169.408 122.723 168.175 123.244 166.613 123.244C165.067 123.244 163.813 122.622 162.853 121.376C161.901 120.131 161.425 118.435 161.425 116.286ZM163.695 116.542C163.695 118.032 164 119.204 164.611 120.058C165.221 120.904 166.076 121.328 167.174 121.328C168.598 121.328 169.644 120.681 170.312 119.387V113.356C169.62 112.095 168.582 111.464 167.199 111.464C166.1 111.464 165.242 111.892 164.623 112.746C164.005 113.601 163.695 114.866 163.695 116.542ZM179.687 116.884L178.271 118.361V123H176.012V104.25H178.271V115.59L179.479 114.138L183.593 109.792H186.339L181.2 115.31L186.938 123H184.289L179.687 116.884ZM191.125 123H188.866V109.792H191.125V123ZM188.683 106.289C188.683 105.922 188.793 105.613 189.013 105.361C189.241 105.109 189.574 104.982 190.014 104.982C190.453 104.982 190.787 105.109 191.015 105.361C191.243 105.613 191.356 105.922 191.356 106.289C191.356 106.655 191.243 106.96 191.015 107.204C190.787 107.448 190.453 107.57 190.014 107.57C189.574 107.57 189.241 107.448 189.013 107.204C188.793 106.96 188.683 106.655 188.683 106.289ZM196.886 109.792L196.959 111.452C197.969 110.183 199.287 109.548 200.915 109.548C203.706 109.548 205.114 111.123 205.138 114.272V123H202.88V114.26C202.872 113.308 202.652 112.604 202.221 112.148C201.798 111.692 201.134 111.464 200.231 111.464C199.499 111.464 198.856 111.66 198.302 112.05C197.749 112.441 197.318 112.954 197.008 113.588V123H194.75V109.792H196.886ZM216.869 109.792L216.93 111.257C217.899 110.118 219.205 109.548 220.849 109.548C222.696 109.548 223.953 110.256 224.621 111.672C225.06 111.037 225.63 110.524 226.33 110.134C227.038 109.743 227.872 109.548 228.832 109.548C231.729 109.548 233.202 111.082 233.251 114.15V123H230.993V114.284C230.993 113.34 230.777 112.636 230.346 112.172C229.914 111.7 229.19 111.464 228.173 111.464C227.335 111.464 226.639 111.717 226.085 112.221C225.532 112.718 225.211 113.389 225.121 114.235V123H222.851V114.345C222.851 112.425 221.911 111.464 220.031 111.464C218.55 111.464 217.536 112.095 216.991 113.356V123H214.733V109.792H216.869ZM242.15 123.244C240.36 123.244 238.903 122.658 237.78 121.486C236.657 120.306 236.095 118.732 236.095 116.762V116.347C236.095 115.037 236.343 113.869 236.84 112.844C237.344 111.81 238.044 111.005 238.939 110.427C239.843 109.841 240.819 109.548 241.869 109.548C243.586 109.548 244.921 110.113 245.873 111.245C246.825 112.376 247.301 113.995 247.301 116.103V117.043H238.354C238.386 118.345 238.764 119.399 239.489 120.205C240.221 121.002 241.149 121.401 242.272 121.401C243.069 121.401 243.745 121.238 244.298 120.913C244.852 120.587 245.336 120.156 245.751 119.619L247.13 120.693C246.024 122.394 244.363 123.244 242.15 123.244ZM241.869 111.403C240.958 111.403 240.193 111.737 239.574 112.404C238.956 113.063 238.573 113.991 238.427 115.188H245.043V115.017C244.978 113.869 244.669 112.982 244.115 112.355C243.562 111.721 242.813 111.403 241.869 111.403ZM252.062 109.792L252.135 111.452C253.144 110.183 254.463 109.548 256.09 109.548C258.882 109.548 260.29 111.123 260.314 114.272V123H258.056V114.26C258.048 113.308 257.828 112.604 257.396 112.148C256.973 111.692 256.31 111.464 255.407 111.464C254.674 111.464 254.031 111.66 253.478 112.05C252.925 112.441 252.493 112.954 252.184 113.588V123H249.926V109.792H252.062ZM268.041 119.692L271.117 109.792H273.534L268.224 125.039C267.402 127.236 266.096 128.334 264.306 128.334L263.878 128.298L263.036 128.139V126.308L263.646 126.357C264.411 126.357 265.006 126.202 265.429 125.893C265.86 125.584 266.214 125.018 266.491 124.196L266.991 122.854L262.279 109.792H264.745L268.041 119.692ZM283.52 123C283.389 122.74 283.284 122.276 283.202 121.608C282.152 122.699 280.899 123.244 279.442 123.244C278.14 123.244 277.07 122.878 276.232 122.146C275.402 121.405 274.987 120.469 274.987 119.338C274.987 117.963 275.508 116.896 276.549 116.14C277.599 115.375 279.072 114.992 280.968 114.992H283.166V113.955C283.166 113.165 282.93 112.539 282.458 112.075C281.986 111.603 281.29 111.367 280.37 111.367C279.564 111.367 278.889 111.57 278.344 111.977C277.799 112.384 277.526 112.876 277.526 113.454H275.255C275.255 112.795 275.487 112.16 275.951 111.55C276.423 110.931 277.058 110.443 277.855 110.085C278.661 109.727 279.544 109.548 280.504 109.548C282.026 109.548 283.218 109.93 284.081 110.695C284.944 111.452 285.391 112.498 285.424 113.833V119.912C285.424 121.124 285.578 122.089 285.888 122.805V123H283.52ZM279.772 121.279C280.48 121.279 281.151 121.096 281.786 120.729C282.421 120.363 282.881 119.887 283.166 119.301V116.591H281.396C278.629 116.591 277.245 117.401 277.245 119.021C277.245 119.729 277.481 120.282 277.953 120.681C278.425 121.079 279.031 121.279 279.772 121.279ZM292.65 116.884L291.234 118.361V123H288.976V104.25H291.234V115.59L292.443 114.138L296.557 109.792H299.303L294.164 115.31L299.901 123H297.252L292.65 116.884ZM304.088 123H301.83V109.792H304.088V123ZM301.647 106.289C301.647 105.922 301.757 105.613 301.977 105.361C302.204 105.109 302.538 104.982 302.978 104.982C303.417 104.982 303.751 105.109 303.979 105.361C304.206 105.613 304.32 105.922 304.32 106.289C304.32 106.655 304.206 106.96 303.979 107.204C303.751 107.448 303.417 107.57 302.978 107.57C302.538 107.57 302.204 107.448 301.977 107.204C301.757 106.96 301.647 106.655 301.647 106.289ZM310.778 106.594V109.792H313.244V111.538H310.778V119.729C310.778 120.257 310.888 120.656 311.107 120.925C311.327 121.185 311.701 121.315 312.23 121.315C312.491 121.315 312.849 121.267 313.305 121.169V123C312.711 123.163 312.133 123.244 311.571 123.244C310.562 123.244 309.801 122.939 309.289 122.329C308.776 121.718 308.52 120.852 308.52 119.729V111.538H306.115V109.792H308.52V106.594H310.778ZM319.579 116.884L318.163 118.361V123H315.905V104.25H318.163V115.59L319.372 114.138L323.485 109.792H326.232L321.093 115.31L326.83 123H324.181L319.579 116.884ZM336.718 123C336.588 122.74 336.482 122.276 336.4 121.608C335.351 122.699 334.097 123.244 332.641 123.244C331.339 123.244 330.268 122.878 329.43 122.146C328.6 121.405 328.185 120.469 328.185 119.338C328.185 117.963 328.706 116.896 329.748 116.14C330.797 115.375 332.27 114.992 334.167 114.992H336.364V113.955C336.364 113.165 336.128 112.539 335.656 112.075C335.184 111.603 334.488 111.367 333.568 111.367C332.763 111.367 332.087 111.57 331.542 111.977C330.997 112.384 330.724 112.876 330.724 113.454H328.454C328.454 112.795 328.686 112.16 329.149 111.55C329.621 110.931 330.256 110.443 331.054 110.085C331.859 109.727 332.742 109.548 333.703 109.548C335.224 109.548 336.417 109.93 337.279 110.695C338.142 111.452 338.59 112.498 338.622 113.833V119.912C338.622 121.124 338.777 122.089 339.086 122.805V123H336.718ZM332.97 121.279C333.678 121.279 334.35 121.096 334.984 120.729C335.619 120.363 336.079 119.887 336.364 119.301V116.591H334.594C331.827 116.591 330.443 117.401 330.443 119.021C330.443 119.729 330.679 120.282 331.151 120.681C331.623 121.079 332.23 121.279 332.97 121.279ZM344.298 109.792L344.372 111.452C345.381 110.183 346.699 109.548 348.327 109.548C351.118 109.548 352.526 111.123 352.55 114.272V123H350.292V114.26C350.284 113.308 350.064 112.604 349.633 112.148C349.21 111.692 348.546 111.464 347.643 111.464C346.911 111.464 346.268 111.66 345.714 112.05C345.161 112.441 344.73 112.954 344.42 113.588V123H342.162V109.792H344.298ZM365.221 106.594V109.792H367.687V111.538H365.221V119.729C365.221 120.257 365.331 120.656 365.551 120.925C365.771 121.185 366.145 121.315 366.674 121.315C366.934 121.315 367.292 121.267 367.748 121.169V123C367.154 123.163 366.576 123.244 366.015 123.244C365.006 123.244 364.245 122.939 363.732 122.329C363.219 121.718 362.963 120.852 362.963 119.729V111.538H360.558V109.792H362.963V106.594H365.221ZM378.49 123C378.36 122.74 378.254 122.276 378.173 121.608C377.123 122.699 375.87 123.244 374.413 123.244C373.111 123.244 372.041 122.878 371.203 122.146C370.373 121.405 369.958 120.469 369.958 119.338C369.958 117.963 370.478 116.896 371.52 116.14C372.57 115.375 374.043 114.992 375.939 114.992H378.136V113.955C378.136 113.165 377.9 112.539 377.428 112.075C376.956 111.603 376.26 111.367 375.341 111.367C374.535 111.367 373.86 111.57 373.314 111.977C372.769 112.384 372.497 112.876 372.497 113.454H370.226C370.226 112.795 370.458 112.16 370.922 111.55C371.394 110.931 372.029 110.443 372.826 110.085C373.632 109.727 374.515 109.548 375.475 109.548C376.997 109.548 378.189 109.93 379.052 110.695C379.914 111.452 380.362 112.498 380.395 113.833V119.912C380.395 121.124 380.549 122.089 380.858 122.805V123H378.49ZM374.743 121.279C375.451 121.279 376.122 121.096 376.757 120.729C377.392 120.363 377.851 119.887 378.136 119.301V116.591H376.366C373.599 116.591 372.216 117.401 372.216 119.021C372.216 119.729 372.452 120.282 372.924 120.681C373.396 121.079 374.002 121.279 374.743 121.279ZM395.092 116.542C395.092 118.553 394.632 120.172 393.712 121.401C392.793 122.63 391.548 123.244 389.977 123.244C388.374 123.244 387.112 122.736 386.193 121.718V128.078H383.935V109.792H385.998L386.107 111.257C387.027 110.118 388.305 109.548 389.94 109.548C391.527 109.548 392.781 110.146 393.7 111.342C394.628 112.539 395.092 114.203 395.092 116.335V116.542ZM392.833 116.286C392.833 114.797 392.516 113.621 391.881 112.758C391.247 111.896 390.376 111.464 389.269 111.464C387.902 111.464 386.876 112.071 386.193 113.283V119.594C386.868 120.799 387.902 121.401 389.293 121.401C390.376 121.401 391.234 120.974 391.869 120.119C392.512 119.257 392.833 117.979 392.833 116.286ZM400.426 123H398.168V109.792H400.426V123ZM397.985 106.289C397.985 105.922 398.095 105.613 398.314 105.361C398.542 105.109 398.876 104.982 399.315 104.982C399.755 104.982 400.089 105.109 400.316 105.361C400.544 105.613 400.658 105.922 400.658 106.289C400.658 106.655 400.544 106.96 400.316 107.204C400.089 107.448 399.755 107.57 399.315 107.57C398.876 107.57 398.542 107.448 398.314 107.204C398.095 106.96 397.985 106.655 397.985 106.289ZM6.39551 146.884L4.97949 148.361V153H2.72119V134.25H4.97949V145.59L6.18799 144.138L10.3018 139.792H13.0483L7.90918 145.31L13.6465 153H10.9976L6.39551 146.884ZM20.6167 153.244C18.8263 153.244 17.3696 152.658 16.2466 151.486C15.1235 150.306 14.562 148.732 14.562 146.762V146.347C14.562 145.037 14.8102 143.869 15.3066 142.844C15.8112 141.81 16.5111 141.005 17.4062 140.427C18.3096 139.841 19.2861 139.548 20.3359 139.548C22.0531 139.548 23.3877 140.113 24.3398 141.245C25.292 142.376 25.7681 143.995 25.7681 146.103V147.043H16.8203C16.8529 148.345 17.2313 149.399 17.9556 150.205C18.688 151.002 19.6157 151.401 20.7388 151.401C21.5363 151.401 22.2118 151.238 22.7651 150.913C23.3185 150.587 23.8027 150.156 24.2178 149.619L25.5972 150.693C24.4904 152.394 22.8302 153.244 20.6167 153.244ZM20.3359 141.403C19.4245 141.403 18.6595 141.737 18.041 142.404C17.4225 143.063 17.04 143.991 16.8936 145.188H23.5098V145.017C23.4447 143.869 23.1354 142.982 22.582 142.355C22.0286 141.721 21.2799 141.403 20.3359 141.403ZM39.5742 146.542C39.5742 148.561 39.1104 150.184 38.1826 151.413C37.2549 152.634 36.0098 153.244 34.4473 153.244C32.779 153.244 31.4891 152.654 30.5776 151.474L30.4678 153H28.3926V134.25H30.6509V141.245C31.5623 140.113 32.8197 139.548 34.4229 139.548C36.026 139.548 37.2834 140.154 38.1948 141.367C39.1144 142.579 39.5742 144.239 39.5742 146.347V146.542ZM37.3159 146.286C37.3159 144.748 37.0189 143.56 36.4248 142.722C35.8307 141.883 34.9762 141.464 33.8613 141.464C32.3721 141.464 31.3019 142.156 30.6509 143.54V149.252C31.3426 150.636 32.4209 151.328 33.8857 151.328C34.9681 151.328 35.8104 150.909 36.4126 150.07C37.0148 149.232 37.3159 147.971 37.3159 146.286ZM41.8325 146.274C41.8325 144.98 42.0848 143.816 42.5894 142.783C43.1021 141.749 43.8101 140.952 44.7134 140.39C45.6248 139.829 46.6624 139.548 47.8262 139.548C49.6247 139.548 51.0773 140.17 52.1841 141.416C53.299 142.661 53.8564 144.317 53.8564 146.384V146.542C53.8564 147.828 53.6082 148.984 53.1118 150.009C52.6235 151.027 51.9196 151.82 51 152.39C50.0885 152.959 49.0387 153.244 47.8506 153.244C46.0602 153.244 44.6076 152.622 43.4927 151.376C42.3859 150.131 41.8325 148.483 41.8325 146.433V146.274ZM44.103 146.542C44.103 148.007 44.4408 149.183 45.1162 150.07C45.7998 150.957 46.7113 151.401 47.8506 151.401C48.998 151.401 49.9095 150.953 50.585 150.058C51.2604 149.155 51.5981 147.893 51.5981 146.274C51.5981 144.825 51.2523 143.653 50.5605 142.758C49.877 141.855 48.9655 141.403 47.8262 141.403C46.7113 141.403 45.812 141.847 45.1284 142.734C44.4448 143.621 44.103 144.89 44.103 146.542ZM58.9468 141.391C59.9478 140.162 61.2498 139.548 62.853 139.548C65.6444 139.548 67.0522 141.123 67.0767 144.272V153H64.8184V144.26C64.8102 143.308 64.5905 142.604 64.1592 142.148C63.736 141.692 63.0728 141.464 62.1694 141.464C61.437 141.464 60.7941 141.66 60.2407 142.05C59.6873 142.441 59.256 142.954 58.9468 143.588V153H56.6885V134.25H58.9468V141.391ZM69.8599 146.274C69.8599 144.98 70.1121 143.816 70.6167 142.783C71.1294 141.749 71.8374 140.952 72.7407 140.39C73.6522 139.829 74.6898 139.548 75.8535 139.548C77.652 139.548 79.1047 140.17 80.2114 141.416C81.3263 142.661 81.8838 144.317 81.8838 146.384V146.542C81.8838 147.828 81.6356 148.984 81.1392 150.009C80.6509 151.027 79.9469 151.82 79.0273 152.39C78.1159 152.959 77.0661 153.244 75.8779 153.244C74.0876 153.244 72.6349 152.622 71.52 151.376C70.4132 150.131 69.8599 148.483 69.8599 146.433V146.274ZM72.1304 146.542C72.1304 148.007 72.4681 149.183 73.1436 150.07C73.8271 150.957 74.7386 151.401 75.8779 151.401C77.0254 151.401 77.9368 150.953 78.6123 150.058C79.2878 149.155 79.6255 147.893 79.6255 146.274C79.6255 144.825 79.2796 143.653 78.5879 142.758C77.9043 141.855 76.9928 141.403 75.8535 141.403C74.7386 141.403 73.8394 141.847 73.1558 142.734C72.4722 143.621 72.1304 144.89 72.1304 146.542ZM86.8521 139.792L86.9253 141.452C87.9344 140.183 89.2528 139.548 90.8804 139.548C93.6717 139.548 95.0796 141.123 95.104 144.272V153H92.8457V144.26C92.8376 143.308 92.6178 142.604 92.1865 142.148C91.7633 141.692 91.1001 141.464 90.1968 141.464C89.4644 141.464 88.8215 141.66 88.2681 142.05C87.7147 142.441 87.2834 142.954 86.9741 143.588V153H84.7158V139.792H86.8521ZM97.9727 146.286C97.9727 144.227 98.4487 142.591 99.4009 141.379C100.353 140.158 101.614 139.548 103.185 139.548C104.796 139.548 106.054 140.118 106.957 141.257L107.067 139.792H109.13V152.683C109.13 154.392 108.621 155.738 107.604 156.723C106.595 157.708 105.236 158.2 103.527 158.2C102.575 158.2 101.643 157.997 100.731 157.59C99.82 157.183 99.1242 156.625 98.644 155.917L99.8159 154.562C100.784 155.759 101.968 156.357 103.368 156.357C104.467 156.357 105.321 156.048 105.932 155.429C106.55 154.811 106.859 153.94 106.859 152.817V151.682C105.956 152.723 104.723 153.244 103.161 153.244C101.614 153.244 100.361 152.622 99.4009 151.376C98.4487 150.131 97.9727 148.435 97.9727 146.286ZM100.243 146.542C100.243 148.032 100.548 149.204 101.159 150.058C101.769 150.904 102.624 151.328 103.722 151.328C105.146 151.328 106.192 150.681 106.859 149.387V143.356C106.168 142.095 105.13 141.464 103.747 141.464C102.648 141.464 101.789 141.892 101.171 142.746C100.552 143.601 100.243 144.866 100.243 146.542ZM120.702 153C120.572 152.74 120.466 152.276 120.385 151.608C119.335 152.699 118.082 153.244 116.625 153.244C115.323 153.244 114.253 152.878 113.415 152.146C112.584 151.405 112.169 150.469 112.169 149.338C112.169 147.963 112.69 146.896 113.732 146.14C114.782 145.375 116.255 144.992 118.151 144.992H120.348V143.955C120.348 143.165 120.112 142.539 119.64 142.075C119.168 141.603 118.472 141.367 117.553 141.367C116.747 141.367 116.072 141.57 115.526 141.977C114.981 142.384 114.708 142.876 114.708 143.454H112.438C112.438 142.795 112.67 142.16 113.134 141.55C113.606 140.931 114.241 140.443 115.038 140.085C115.844 139.727 116.727 139.548 117.687 139.548C119.209 139.548 120.401 139.93 121.264 140.695C122.126 141.452 122.574 142.498 122.606 143.833V149.912C122.606 151.124 122.761 152.089 123.07 152.805V153H120.702ZM116.955 151.279C117.663 151.279 118.334 151.096 118.969 150.729C119.604 150.363 120.063 149.887 120.348 149.301V146.591H118.578C115.811 146.591 114.428 147.401 114.428 149.021C114.428 149.729 114.664 150.282 115.136 150.681C115.608 151.079 116.214 151.279 116.955 151.279ZM128.283 139.792L128.356 141.452C129.365 140.183 130.683 139.548 132.311 139.548C135.102 139.548 136.51 141.123 136.535 144.272V153H134.276V144.26C134.268 143.308 134.049 142.604 133.617 142.148C133.194 141.692 132.531 141.464 131.627 141.464C130.895 141.464 130.252 141.66 129.699 142.05C129.145 142.441 128.714 142.954 128.405 143.588V153H126.146V139.792H128.283ZM148.266 139.792L148.327 141.257C149.295 140.118 150.601 139.548 152.245 139.548C154.092 139.548 155.35 140.256 156.017 141.672C156.457 141.037 157.026 140.524 157.726 140.134C158.434 139.743 159.268 139.548 160.229 139.548C163.126 139.548 164.599 141.082 164.647 144.15V153H162.389V144.284C162.389 143.34 162.174 142.636 161.742 142.172C161.311 141.7 160.587 141.464 159.569 141.464C158.731 141.464 158.035 141.717 157.482 142.221C156.929 142.718 156.607 143.389 156.518 144.235V153H154.247V144.345C154.247 142.425 153.307 141.464 151.427 141.464C149.946 141.464 148.933 142.095 148.388 143.356V153H146.129V139.792H148.266ZM173.546 153.244C171.756 153.244 170.299 152.658 169.176 151.486C168.053 150.306 167.492 148.732 167.492 146.762V146.347C167.492 145.037 167.74 143.869 168.236 142.844C168.741 141.81 169.441 141.005 170.336 140.427C171.239 139.841 172.216 139.548 173.266 139.548C174.983 139.548 176.317 140.113 177.27 141.245C178.222 142.376 178.698 143.995 178.698 146.103V147.043H169.75C169.783 148.345 170.161 149.399 170.885 150.205C171.618 151.002 172.545 151.401 173.668 151.401C174.466 151.401 175.141 151.238 175.695 150.913C176.248 150.587 176.732 150.156 177.147 149.619L178.527 150.693C177.42 152.394 175.76 153.244 173.546 153.244ZM173.266 141.403C172.354 141.403 171.589 141.737 170.971 142.404C170.352 143.063 169.97 143.991 169.823 145.188H176.439V145.017C176.374 143.869 176.065 142.982 175.512 142.355C174.958 141.721 174.21 141.403 173.266 141.403ZM183.458 139.792L183.532 141.452C184.541 140.183 185.859 139.548 187.487 139.548C190.278 139.548 191.686 141.123 191.71 144.272V153H189.452V144.26C189.444 143.308 189.224 142.604 188.793 142.148C188.37 141.692 187.707 141.464 186.803 141.464C186.071 141.464 185.428 141.66 184.875 142.05C184.321 142.441 183.89 142.954 183.581 143.588V153H181.322V139.792H183.458ZM194.579 146.286C194.579 144.227 195.055 142.591 196.007 141.379C196.959 140.158 198.221 139.548 199.792 139.548C201.403 139.548 202.66 140.118 203.563 141.257L203.673 139.792H205.736V152.683C205.736 154.392 205.228 155.738 204.21 156.723C203.201 157.708 201.842 158.2 200.133 158.2C199.181 158.2 198.249 157.997 197.338 157.59C196.426 157.183 195.731 156.625 195.25 155.917L196.422 154.562C197.391 155.759 198.575 156.357 199.975 156.357C201.073 156.357 201.928 156.048 202.538 155.429C203.157 154.811 203.466 153.94 203.466 152.817V151.682C202.562 152.723 201.33 153.244 199.767 153.244C198.221 153.244 196.968 152.622 196.007 151.376C195.055 150.131 194.579 148.435 194.579 146.286ZM196.85 146.542C196.85 148.032 197.155 149.204 197.765 150.058C198.375 150.904 199.23 151.328 200.329 151.328C201.753 151.328 202.799 150.681 203.466 149.387V143.356C202.774 142.095 201.736 141.464 200.353 141.464C199.254 141.464 198.396 141.892 197.777 142.746C197.159 143.601 196.85 144.866 196.85 146.542ZM211.413 141.391C212.414 140.162 213.716 139.548 215.319 139.548C218.11 139.548 219.518 141.123 219.542 144.272V153H217.284V144.26C217.276 143.308 217.056 142.604 216.625 142.148C216.202 141.692 215.539 141.464 214.635 141.464C213.903 141.464 213.26 141.66 212.707 142.05C212.153 142.441 211.722 142.954 211.413 143.588V153H209.154V134.25H211.413V141.391ZM231.078 153C230.948 152.74 230.842 152.276 230.761 151.608C229.711 152.699 228.458 153.244 227.001 153.244C225.699 153.244 224.629 152.878 223.791 152.146C222.96 151.405 222.545 150.469 222.545 149.338C222.545 147.963 223.066 146.896 224.108 146.14C225.158 145.375 226.631 144.992 228.527 144.992H230.724V143.955C230.724 143.165 230.488 142.539 230.016 142.075C229.544 141.603 228.848 141.367 227.929 141.367C227.123 141.367 226.448 141.57 225.902 141.977C225.357 142.384 225.084 142.876 225.084 143.454H222.814C222.814 142.795 223.046 142.16 223.51 141.55C223.982 140.931 224.617 140.443 225.414 140.085C226.22 139.727 227.103 139.548 228.063 139.548C229.585 139.548 230.777 139.93 231.64 140.695C232.502 141.452 232.95 142.498 232.982 143.833V149.912C232.982 151.124 233.137 152.089 233.446 152.805V153H231.078ZM227.331 151.279C228.039 151.279 228.71 151.096 229.345 150.729C229.979 150.363 230.439 149.887 230.724 149.301V146.591H228.954C226.187 146.591 224.804 147.401 224.804 149.021C224.804 149.729 225.04 150.282 225.512 150.681C225.984 151.079 226.59 151.279 227.331 151.279ZM238.659 139.792L238.732 141.452C239.741 140.183 241.059 139.548 242.687 139.548C245.478 139.548 246.886 141.123 246.911 144.272V153H244.652V144.26C244.644 143.308 244.424 142.604 243.993 142.148C243.57 141.692 242.907 141.464 242.003 141.464C241.271 141.464 240.628 141.66 240.075 142.05C239.521 142.441 239.09 142.954 238.781 143.588V153H236.522V139.792H238.659ZM255.614 151.401C256.42 151.401 257.124 151.157 257.726 150.668C258.328 150.18 258.662 149.57 258.727 148.837H260.863C260.823 149.594 260.562 150.314 260.082 150.998C259.602 151.682 258.959 152.227 258.153 152.634C257.356 153.041 256.509 153.244 255.614 153.244C253.816 153.244 252.383 152.646 251.317 151.45C250.259 150.245 249.73 148.601 249.73 146.518V146.14C249.73 144.854 249.966 143.71 250.438 142.709C250.91 141.708 251.586 140.931 252.465 140.378C253.352 139.825 254.398 139.548 255.602 139.548C257.083 139.548 258.312 139.991 259.289 140.878C260.273 141.765 260.798 142.917 260.863 144.333H258.727C258.662 143.479 258.336 142.779 257.75 142.233C257.173 141.68 256.457 141.403 255.602 141.403C254.455 141.403 253.563 141.818 252.929 142.648C252.302 143.47 251.989 144.663 251.989 146.225V146.652C251.989 148.174 252.302 149.346 252.929 150.168C253.555 150.99 254.451 151.401 255.614 151.401ZM271.557 151.694C270.678 152.727 269.388 153.244 267.687 153.244C266.279 153.244 265.205 152.837 264.464 152.023C263.732 151.201 263.362 149.989 263.354 148.386V139.792H265.612V148.325C265.612 150.327 266.426 151.328 268.053 151.328C269.778 151.328 270.926 150.685 271.496 149.399V139.792H273.754V153H271.605L271.557 151.694ZM283.581 141.818C283.239 141.761 282.868 141.733 282.47 141.733C280.989 141.733 279.984 142.364 279.455 143.625V153H277.196V139.792H279.394L279.43 141.318C280.171 140.138 281.221 139.548 282.58 139.548C283.019 139.548 283.353 139.605 283.581 139.719V141.818ZM289.354 146.884L287.938 148.361V153H285.68V134.25H287.938V145.59L289.147 144.138L293.261 139.792H296.007L290.868 145.31L296.605 153H293.957L289.354 146.884ZM306.493 153C306.363 152.74 306.257 152.276 306.176 151.608C305.126 152.699 303.873 153.244 302.416 153.244C301.114 153.244 300.044 152.878 299.206 152.146C298.375 151.405 297.96 150.469 297.96 149.338C297.96 147.963 298.481 146.896 299.523 146.14C300.573 145.375 302.046 144.992 303.942 144.992H306.139V143.955C306.139 143.165 305.903 142.539 305.431 142.075C304.959 141.603 304.263 141.367 303.344 141.367C302.538 141.367 301.863 141.57 301.317 141.977C300.772 142.384 300.5 142.876 300.5 143.454H298.229C298.229 142.795 298.461 142.16 298.925 141.55C299.397 140.931 300.032 140.443 300.829 140.085C301.635 139.727 302.518 139.548 303.478 139.548C305 139.548 306.192 139.93 307.055 140.695C307.917 141.452 308.365 142.498 308.397 143.833V149.912C308.397 151.124 308.552 152.089 308.861 152.805V153H306.493ZM302.746 151.279C303.454 151.279 304.125 151.096 304.76 150.729C305.395 150.363 305.854 149.887 306.139 149.301V146.591H304.369C301.602 146.591 300.219 147.401 300.219 149.021C300.219 149.729 300.455 150.282 300.927 150.681C301.399 151.079 302.005 151.279 302.746 151.279ZM314.074 139.792L314.147 141.452C315.156 140.183 316.474 139.548 318.102 139.548C320.893 139.548 322.301 141.123 322.326 144.272V153H320.067V144.26C320.059 143.308 319.84 142.604 319.408 142.148C318.985 141.692 318.322 141.464 317.418 141.464C316.686 141.464 316.043 141.66 315.49 142.05C314.936 142.441 314.505 142.954 314.196 143.588V153H311.938V139.792H314.074ZM339.623 149.497C339.623 148.886 339.391 148.414 338.927 148.081C338.472 147.739 337.67 147.446 336.522 147.202C335.383 146.958 334.476 146.665 333.8 146.323C333.133 145.981 332.637 145.574 332.311 145.102C331.994 144.63 331.835 144.069 331.835 143.417C331.835 142.335 332.291 141.42 333.202 140.671C334.122 139.922 335.294 139.548 336.718 139.548C338.215 139.548 339.428 139.934 340.355 140.708C341.291 141.481 341.759 142.469 341.759 143.674H339.489C339.489 143.055 339.224 142.522 338.695 142.075C338.174 141.627 337.515 141.403 336.718 141.403C335.896 141.403 335.253 141.582 334.789 141.94C334.325 142.299 334.093 142.766 334.093 143.344C334.093 143.889 334.309 144.3 334.74 144.577C335.172 144.854 335.949 145.118 337.072 145.371C338.203 145.623 339.118 145.924 339.818 146.274C340.518 146.624 341.035 147.047 341.369 147.543C341.71 148.032 341.881 148.63 341.881 149.338C341.881 150.518 341.409 151.466 340.465 152.182C339.521 152.89 338.297 153.244 336.791 153.244C335.733 153.244 334.797 153.057 333.983 152.683C333.17 152.308 332.531 151.787 332.067 151.12C331.611 150.445 331.383 149.716 331.383 148.935H333.642C333.682 149.692 333.983 150.294 334.545 150.742C335.115 151.181 335.863 151.401 336.791 151.401C337.646 151.401 338.329 151.23 338.842 150.888C339.363 150.538 339.623 150.074 339.623 149.497ZM350.304 153.244C348.514 153.244 347.057 152.658 345.934 151.486C344.811 150.306 344.25 148.732 344.25 146.762V146.347C344.25 145.037 344.498 143.869 344.994 142.844C345.499 141.81 346.199 141.005 347.094 140.427C347.997 139.841 348.974 139.548 350.023 139.548C351.741 139.548 353.075 140.113 354.027 141.245C354.979 142.376 355.456 143.995 355.456 146.103V147.043H346.508C346.54 148.345 346.919 149.399 347.643 150.205C348.375 151.002 349.303 151.401 350.426 151.401C351.224 151.401 351.899 151.238 352.453 150.913C353.006 150.587 353.49 150.156 353.905 149.619L355.285 150.693C354.178 152.394 352.518 153.244 350.304 153.244ZM350.023 141.403C349.112 141.403 348.347 141.737 347.729 142.404C347.11 143.063 346.728 143.991 346.581 145.188H353.197V145.017C353.132 143.869 352.823 142.982 352.27 142.355C351.716 141.721 350.967 141.403 350.023 141.403ZM357.543 146.286C357.543 144.227 358.019 142.591 358.971 141.379C359.923 140.158 361.185 139.548 362.755 139.548C364.367 139.548 365.624 140.118 366.527 141.257L366.637 139.792H368.7V152.683C368.7 154.392 368.192 155.738 367.174 156.723C366.165 157.708 364.806 158.2 363.097 158.2C362.145 158.2 361.213 157.997 360.302 157.59C359.39 157.183 358.694 156.625 358.214 155.917L359.386 154.562C360.355 155.759 361.539 156.357 362.938 156.357C364.037 156.357 364.892 156.048 365.502 155.429C366.12 154.811 366.43 153.94 366.43 152.817V151.682C365.526 152.723 364.293 153.244 362.731 153.244C361.185 153.244 359.931 152.622 358.971 151.376C358.019 150.131 357.543 148.435 357.543 146.286ZM359.813 146.542C359.813 148.032 360.119 149.204 360.729 150.058C361.339 150.904 362.194 151.328 363.292 151.328C364.717 151.328 365.762 150.681 366.43 149.387V143.356C365.738 142.095 364.7 141.464 363.317 141.464C362.218 141.464 361.36 141.892 360.741 142.746C360.123 143.601 359.813 144.866 359.813 146.542ZM380.272 153C380.142 152.74 380.036 152.276 379.955 151.608C378.905 152.699 377.652 153.244 376.195 153.244C374.893 153.244 373.823 152.878 372.985 152.146C372.155 151.405 371.74 150.469 371.74 149.338C371.74 147.963 372.261 146.896 373.302 146.14C374.352 145.375 375.825 144.992 377.721 144.992H379.918V143.955C379.918 143.165 379.682 142.539 379.21 142.075C378.738 141.603 378.043 141.367 377.123 141.367C376.317 141.367 375.642 141.57 375.097 141.977C374.551 142.384 374.279 142.876 374.279 143.454H372.008C372.008 142.795 372.24 142.16 372.704 141.55C373.176 140.931 373.811 140.443 374.608 140.085C375.414 139.727 376.297 139.548 377.257 139.548C378.779 139.548 379.971 139.93 380.834 140.695C381.697 141.452 382.144 142.498 382.177 143.833V149.912C382.177 151.124 382.331 152.089 382.641 152.805V153H380.272ZM376.525 151.279C377.233 151.279 377.904 151.096 378.539 150.729C379.174 150.363 379.634 149.887 379.918 149.301V146.591H378.148C375.382 146.591 373.998 147.401 373.998 149.021C373.998 149.729 374.234 150.282 374.706 150.681C375.178 151.079 375.784 151.279 376.525 151.279ZM388.17 153H385.912V134.25H388.17V153ZM399.95 153C399.82 152.74 399.714 152.276 399.633 151.608C398.583 152.699 397.33 153.244 395.873 153.244C394.571 153.244 393.501 152.878 392.663 152.146C391.833 151.405 391.417 150.469 391.417 149.338C391.417 147.963 391.938 146.896 392.98 146.14C394.03 145.375 395.503 144.992 397.399 144.992H399.596V143.955C399.596 143.165 399.36 142.539 398.888 142.075C398.416 141.603 397.72 141.367 396.801 141.367C395.995 141.367 395.32 141.57 394.774 141.977C394.229 142.384 393.957 142.876 393.957 143.454H391.686C391.686 142.795 391.918 142.16 392.382 141.55C392.854 140.931 393.489 140.443 394.286 140.085C395.092 139.727 395.975 139.548 396.935 139.548C398.457 139.548 399.649 139.93 400.512 140.695C401.374 141.452 401.822 142.498 401.854 143.833V149.912C401.854 151.124 402.009 152.089 402.318 152.805V153H399.95ZM396.203 151.279C396.911 151.279 397.582 151.096 398.217 150.729C398.852 150.363 399.311 149.887 399.596 149.301V146.591H397.826C395.059 146.591 393.676 147.401 393.676 149.021C393.676 149.729 393.912 150.282 394.384 150.681C394.856 151.079 395.462 151.279 396.203 151.279ZM407.531 139.792L407.604 141.452C408.613 140.183 409.931 139.548 411.559 139.548C414.35 139.548 415.758 141.123 415.783 144.272V153H413.524V144.26C413.516 143.308 413.297 142.604 412.865 142.148C412.442 141.692 411.779 141.464 410.875 141.464C410.143 141.464 409.5 141.66 408.947 142.05C408.393 142.441 407.962 142.954 407.653 143.588V153H405.395V139.792H407.531ZM423.51 149.692L426.586 139.792H429.003L423.693 155.039C422.871 157.236 421.565 158.334 419.774 158.334L419.347 158.298L418.505 158.139V156.308L419.115 156.357C419.88 156.357 420.474 156.202 420.897 155.893C421.329 155.584 421.683 155.018 421.959 154.196L422.46 152.854L417.748 139.792H420.214L423.51 149.692ZM438.988 153C438.858 152.74 438.752 152.276 438.671 151.608C437.621 152.699 436.368 153.244 434.911 153.244C433.609 153.244 432.539 152.878 431.701 152.146C430.871 151.405 430.456 150.469 430.456 149.338C430.456 147.963 430.976 146.896 432.018 146.14C433.068 145.375 434.541 144.992 436.437 144.992H438.634V143.955C438.634 143.165 438.398 142.539 437.926 142.075C437.454 141.603 436.758 141.367 435.839 141.367C435.033 141.367 434.358 141.57 433.812 141.977C433.267 142.384 432.995 142.876 432.995 143.454H430.724C430.724 142.795 430.956 142.16 431.42 141.55C431.892 140.931 432.527 140.443 433.324 140.085C434.13 139.727 435.013 139.548 435.973 139.548C437.495 139.548 438.687 139.93 439.55 140.695C440.412 141.452 440.86 142.498 440.893 143.833V149.912C440.893 151.124 441.047 152.089 441.356 152.805V153H438.988ZM435.241 151.279C435.949 151.279 436.62 151.096 437.255 150.729C437.89 150.363 438.349 149.887 438.634 149.301V146.591H436.864C434.097 146.591 432.714 147.401 432.714 149.021C432.714 149.729 432.95 150.282 433.422 150.681C433.894 151.079 434.5 151.279 435.241 151.279Z" fill="#363636"/>
<path d="M13.5095 70H11.6248V63.4277H4.45679V70H2.58179V55.7812H4.45679V61.8945H11.6248V55.7812H13.5095V70ZM23.0798 70C22.9757 69.7917 22.891 69.4206 22.8259 68.8867C21.9861 69.7591 20.9835 70.1953 19.8181 70.1953C18.7764 70.1953 17.9203 69.9023 17.2498 69.3164C16.5857 68.724 16.2537 67.9753 16.2537 67.0703C16.2537 65.9701 16.6703 65.1172 17.5037 64.5117C18.3435 63.8997 19.5219 63.5938 21.0388 63.5938H22.7966V62.7637C22.7966 62.1322 22.6078 61.6309 22.2302 61.2598C21.8526 60.8822 21.296 60.6934 20.5603 60.6934C19.9158 60.6934 19.3754 60.8561 18.9392 61.1816C18.503 61.5072 18.2849 61.901 18.2849 62.3633H16.4685C16.4685 61.8359 16.6541 61.3281 17.0251 60.8398C17.4028 60.3451 17.9106 59.9544 18.5486 59.668C19.1931 59.3815 19.8995 59.2383 20.6677 59.2383C21.8852 59.2383 22.8389 59.5443 23.5291 60.1562C24.2192 60.7617 24.5772 61.5983 24.6033 62.666V67.5293C24.6033 68.4993 24.727 69.2708 24.9744 69.8438V70H23.0798ZM20.0818 68.623C20.6482 68.623 21.1853 68.4766 21.6931 68.1836C22.2009 67.8906 22.5688 67.5098 22.7966 67.041V64.873H21.3806C19.1671 64.873 18.0603 65.5208 18.0603 66.8164C18.0603 67.3828 18.2491 67.8255 18.6267 68.1445C19.0043 68.4635 19.4893 68.623 20.0818 68.623ZM26.9958 64.6289C26.9958 63.0078 27.38 61.7057 28.1482 60.7227C28.9164 59.7331 29.9223 59.2383 31.1658 59.2383C32.4028 59.2383 33.3826 59.6615 34.1052 60.5078V55H35.9119V70H34.2517L34.1638 68.8672C33.4412 69.7526 32.4353 70.1953 31.1462 70.1953C29.9223 70.1953 28.9229 69.694 28.1482 68.6914C27.38 67.6888 26.9958 66.3802 26.9958 64.7656V64.6289ZM28.8025 64.834C28.8025 66.0319 29.0499 66.9694 29.5447 67.6465C30.0395 68.3236 30.7231 68.6621 31.5955 68.6621C32.7413 68.6621 33.5779 68.1478 34.1052 67.1191V62.2656C33.5649 61.2695 32.7348 60.7715 31.615 60.7715C30.7296 60.7715 30.0395 61.1133 29.5447 61.7969C29.0499 62.4805 28.8025 63.4928 28.8025 64.834ZM40.6873 70H38.8806V59.4336H40.6873V70ZM38.7341 56.6309C38.7341 56.3379 38.822 56.0905 38.9978 55.8887C39.1801 55.6868 39.447 55.5859 39.7986 55.5859C40.1501 55.5859 40.4171 55.6868 40.5994 55.8887C40.7817 56.0905 40.8728 56.3379 40.8728 56.6309C40.8728 56.9238 40.7817 57.168 40.5994 57.3633C40.4171 57.5586 40.1501 57.6562 39.7986 57.6562C39.447 57.6562 39.1801 57.5586 38.9978 57.3633C38.822 57.168 38.7341 56.9238 38.7341 56.6309ZM50.1111 70C50.0069 69.7917 49.9223 69.4206 49.8572 68.8867C49.0173 69.7591 48.0147 70.1953 46.8494 70.1953C45.8077 70.1953 44.9516 69.9023 44.281 69.3164C43.6169 68.724 43.2849 67.9753 43.2849 67.0703C43.2849 65.9701 43.7016 65.1172 44.5349 64.5117C45.3748 63.8997 46.5531 63.5938 48.0701 63.5938H49.8279V62.7637C49.8279 62.1322 49.6391 61.6309 49.2615 61.2598C48.8839 60.8822 48.3272 60.6934 47.5916 60.6934C46.947 60.6934 46.4067 60.8561 45.9705 61.1816C45.5343 61.5072 45.3162 61.901 45.3162 62.3633H43.4998C43.4998 61.8359 43.6853 61.3281 44.0564 60.8398C44.434 60.3451 44.9418 59.9544 45.5798 59.668C46.2244 59.3815 46.9307 59.2383 47.699 59.2383C48.9164 59.2383 49.8702 59.5443 50.5603 60.1562C51.2504 60.7617 51.6085 61.5983 51.6345 62.666V67.5293C51.6345 68.4993 51.7582 69.2708 52.0056 69.8438V70H50.1111ZM47.113 68.623C47.6794 68.623 48.2166 68.4766 48.7244 68.1836C49.2322 67.8906 49.6 67.5098 49.8279 67.041V64.873H48.4119C46.1983 64.873 45.0916 65.5208 45.0916 66.8164C45.0916 67.3828 45.2804 67.8255 45.658 68.1445C46.0356 68.4635 46.5206 68.623 47.113 68.623ZM56.2732 60.7129C57.074 59.7298 58.1156 59.2383 59.3982 59.2383C61.6313 59.2383 62.7576 60.498 62.7771 63.0176V70H60.9705V63.0078C60.9639 62.2461 60.7882 61.6829 60.4431 61.3184C60.1046 60.9538 59.574 60.7715 58.8513 60.7715C58.2654 60.7715 57.7511 60.9277 57.3083 61.2402C56.8656 61.5527 56.5206 61.9629 56.2732 62.4707V70H54.4666V55H56.2732V60.7129ZM76.9666 70C76.8624 69.7917 76.7778 69.4206 76.7126 68.8867C75.8728 69.7591 74.8702 70.1953 73.7048 70.1953C72.6632 70.1953 71.807 69.9023 71.1365 69.3164C70.4724 68.724 70.1404 67.9753 70.1404 67.0703C70.1404 65.9701 70.557 65.1172 71.3904 64.5117C72.2302 63.8997 73.4086 63.5938 74.9255 63.5938H76.6833V62.7637C76.6833 62.1322 76.4945 61.6309 76.1169 61.2598C75.7393 60.8822 75.1827 60.6934 74.447 60.6934C73.8025 60.6934 73.2621 60.8561 72.8259 61.1816C72.3897 61.5072 72.1716 61.901 72.1716 62.3633H70.3552C70.3552 61.8359 70.5408 61.3281 70.9119 60.8398C71.2895 60.3451 71.7973 59.9544 72.4353 59.668C73.0798 59.3815 73.7862 59.2383 74.5544 59.2383C75.7719 59.2383 76.7257 59.5443 77.4158 60.1562C78.1059 60.7617 78.4639 61.5983 78.49 62.666V67.5293C78.49 68.4993 78.6137 69.2708 78.8611 69.8438V70H76.9666ZM73.9685 68.623C74.5349 68.623 75.072 68.4766 75.5798 68.1836C76.0876 67.8906 76.4555 67.5098 76.6833 67.041V64.873H75.2673C73.0538 64.873 71.947 65.5208 71.947 66.8164C71.947 67.3828 72.1358 67.8255 72.5134 68.1445C72.891 68.4635 73.3761 68.623 73.9685 68.623ZM84.2712 65.1074L83.1384 66.2891V70H81.3318V55H83.1384V64.0723L84.1052 62.9102L87.3962 59.4336H89.5935L85.4822 63.8477L90.072 70H87.9529L84.2712 65.1074ZM97.9822 70C97.878 69.7917 97.7934 69.4206 97.7283 68.8867C96.8884 69.7591 95.8858 70.1953 94.7205 70.1953C93.6788 70.1953 92.8227 69.9023 92.1521 69.3164C91.488 68.724 91.156 67.9753 91.156 67.0703C91.156 65.9701 91.5727 65.1172 92.406 64.5117C93.2458 63.8997 94.4242 63.5938 95.9412 63.5938H97.699V62.7637C97.699 62.1322 97.5102 61.6309 97.1326 61.2598C96.755 60.8822 96.1983 60.6934 95.4626 60.6934C94.8181 60.6934 94.2778 60.8561 93.8416 61.1816C93.4054 61.5072 93.1873 61.901 93.1873 62.3633H91.3708C91.3708 61.8359 91.5564 61.3281 91.9275 60.8398C92.3051 60.3451 92.8129 59.9544 93.4509 59.668C94.0955 59.3815 94.8018 59.2383 95.5701 59.2383C96.7875 59.2383 97.7413 59.5443 98.4314 60.1562C99.1215 60.7617 99.4796 61.5983 99.5056 62.666V67.5293C99.5056 68.4993 99.6293 69.2708 99.8767 69.8438V70H97.9822ZM94.9841 68.623C95.5505 68.623 96.0876 68.4766 96.5955 68.1836C97.1033 67.8906 97.4711 67.5098 97.699 67.041V64.873H96.283C94.0694 64.873 92.9626 65.5208 92.9626 66.8164C92.9626 67.3828 93.1514 67.8255 93.5291 68.1445C93.9067 68.4635 94.3917 68.623 94.9841 68.623ZM104.047 59.4336L104.105 60.7617C104.913 59.7461 105.967 59.2383 107.269 59.2383C109.502 59.2383 110.629 60.498 110.648 63.0176V70H108.842V63.0078C108.835 62.2461 108.659 61.6829 108.314 61.3184C107.976 60.9538 107.445 60.7715 106.722 60.7715C106.136 60.7715 105.622 60.9277 105.179 61.2402C104.737 61.5527 104.392 61.9629 104.144 62.4707V70H102.338V59.4336H104.047ZM117.894 64.6289C117.894 63.0078 118.278 61.7057 119.047 60.7227C119.815 59.7331 120.821 59.2383 122.064 59.2383C123.301 59.2383 124.281 59.6615 125.004 60.5078V55H126.81V70H125.15L125.062 68.8672C124.34 69.7526 123.334 70.1953 122.045 70.1953C120.821 70.1953 119.821 69.694 119.047 68.6914C118.278 67.6888 117.894 66.3802 117.894 64.7656V64.6289ZM119.701 64.834C119.701 66.0319 119.948 66.9694 120.443 67.6465C120.938 68.3236 121.622 68.6621 122.494 68.6621C123.64 68.6621 124.476 68.1478 125.004 67.1191V62.2656C124.463 61.2695 123.633 60.7715 122.513 60.7715C121.628 60.7715 120.938 61.1133 120.443 61.7969C119.948 62.4805 119.701 63.4928 119.701 64.834ZM131.586 70H129.779V59.4336H131.586V70ZM129.633 56.6309C129.633 56.3379 129.72 56.0905 129.896 55.8887C130.079 55.6868 130.345 55.5859 130.697 55.5859C131.049 55.5859 131.316 55.6868 131.498 55.8887C131.68 56.0905 131.771 56.3379 131.771 56.6309C131.771 56.9238 131.68 57.168 131.498 57.3633C131.316 57.5586 131.049 57.6562 130.697 57.6562C130.345 57.6562 130.079 57.5586 129.896 57.3633C129.72 57.168 129.633 56.9238 129.633 56.6309ZM141.01 68.9551C140.306 69.7819 139.274 70.1953 137.914 70.1953C136.788 70.1953 135.928 69.8698 135.336 69.2188C134.75 68.5612 134.454 67.5911 134.447 66.3086V59.4336H136.254V66.2598C136.254 67.8613 136.905 68.6621 138.207 68.6621C139.587 68.6621 140.505 68.1478 140.961 67.1191V59.4336H142.767V70H141.049L141.01 68.9551ZM147.23 59.4336L147.289 60.7617C148.096 59.7461 149.151 59.2383 150.453 59.2383C152.686 59.2383 153.812 60.498 153.832 63.0176V70H152.025V63.0078C152.019 62.2461 151.843 61.6829 151.498 61.3184C151.159 60.9538 150.629 60.7715 149.906 60.7715C149.32 60.7715 148.806 60.9277 148.363 61.2402C147.92 61.5527 147.575 61.9629 147.328 62.4707V70H145.521V59.4336H147.23ZM156.117 64.6289C156.117 63.0078 156.501 61.7057 157.269 60.7227C158.038 59.7331 159.043 59.2383 160.287 59.2383C161.524 59.2383 162.504 59.6615 163.226 60.5078V55H165.033V70H163.373L163.285 68.8672C162.562 69.7526 161.556 70.1953 160.267 70.1953C159.043 70.1953 158.044 69.694 157.269 68.6914C156.501 67.6888 156.117 66.3802 156.117 64.7656V64.6289ZM157.924 64.834C157.924 66.0319 158.171 66.9694 158.666 67.6465C159.161 68.3236 159.844 68.6621 160.717 68.6621C161.862 68.6621 162.699 68.1478 163.226 67.1191V62.2656C162.686 61.2695 161.856 60.7715 160.736 60.7715C159.851 60.7715 159.161 61.1133 158.666 61.7969C158.171 62.4805 157.924 63.4928 157.924 64.834ZM169.808 70H168.002V59.4336H169.808V70ZM167.855 56.6309C167.855 56.3379 167.943 56.0905 168.119 55.8887C168.301 55.6868 168.568 55.5859 168.92 55.5859C169.271 55.5859 169.538 55.6868 169.72 55.8887C169.903 56.0905 169.994 56.3379 169.994 56.6309C169.994 56.9238 169.903 57.168 169.72 57.3633C169.538 57.5586 169.271 57.6562 168.92 57.6562C168.568 57.6562 168.301 57.5586 168.119 57.3633C167.943 57.168 167.855 56.9238 167.855 56.6309ZM177.23 64.6289C177.23 63.0078 177.614 61.7057 178.383 60.7227C179.151 59.7331 180.157 59.2383 181.4 59.2383C182.637 59.2383 183.617 59.6615 184.34 60.5078V55H186.146V70H184.486L184.398 68.8672C183.676 69.7526 182.67 70.1953 181.381 70.1953C180.157 70.1953 179.157 69.694 178.383 68.6914C177.614 67.6888 177.23 66.3802 177.23 64.7656V64.6289ZM179.037 64.834C179.037 66.0319 179.284 66.9694 179.779 67.6465C180.274 68.3236 180.957 68.6621 181.83 68.6621C182.976 68.6621 183.812 68.1478 184.34 67.1191V62.2656C183.799 61.2695 182.969 60.7715 181.849 60.7715C180.964 60.7715 180.274 61.1133 179.779 61.7969C179.284 62.4805 179.037 63.4928 179.037 64.834ZM190.922 70H189.115V59.4336H190.922V70ZM188.969 56.6309C188.969 56.3379 189.056 56.0905 189.232 55.8887C189.414 55.6868 189.681 55.5859 190.033 55.5859C190.385 55.5859 190.651 55.6868 190.834 55.8887C191.016 56.0905 191.107 56.3379 191.107 56.6309C191.107 56.9238 191.016 57.168 190.834 57.3633C190.651 57.5586 190.385 57.6562 190.033 57.6562C189.681 57.6562 189.414 57.5586 189.232 57.3633C189.056 57.168 188.969 56.9238 188.969 56.6309ZM205.306 70C205.202 69.7917 205.118 69.4206 205.052 68.8867C204.213 69.7591 203.21 70.1953 202.045 70.1953C201.003 70.1953 200.147 69.9023 199.476 69.3164C198.812 68.724 198.48 67.9753 198.48 67.0703C198.48 65.9701 198.897 65.1172 199.73 64.5117C200.57 63.8997 201.748 63.5938 203.265 63.5938H205.023V62.7637C205.023 62.1322 204.834 61.6309 204.457 61.2598C204.079 60.8822 203.523 60.6934 202.787 60.6934C202.142 60.6934 201.602 60.8561 201.166 61.1816C200.73 61.5072 200.511 61.901 200.511 62.3633H198.695C198.695 61.8359 198.881 61.3281 199.252 60.8398C199.629 60.3451 200.137 59.9544 200.775 59.668C201.42 59.3815 202.126 59.2383 202.894 59.2383C204.112 59.2383 205.066 59.5443 205.756 60.1562C206.446 60.7617 206.804 61.5983 206.83 62.666V67.5293C206.83 68.4993 206.954 69.2708 207.201 69.8438V70H205.306ZM202.308 68.623C202.875 68.623 203.412 68.4766 203.92 68.1836C204.427 67.8906 204.795 67.5098 205.023 67.041V64.873H203.607C201.394 64.873 200.287 65.5208 200.287 66.8164C200.287 67.3828 200.476 67.8255 200.853 68.1445C201.231 68.4635 201.716 68.623 202.308 68.623ZM212.611 65.1074L211.478 66.2891V70H209.672V55H211.478V64.0723L212.445 62.9102L215.736 59.4336H217.933L213.822 63.8477L218.412 70H216.293L212.611 65.1074ZM221.605 60.7129C222.406 59.7298 223.448 59.2383 224.73 59.2383C226.963 59.2383 228.09 60.498 228.109 63.0176V70H226.302V63.0078C226.296 62.2461 226.12 61.6829 225.775 61.3184C225.437 60.9538 224.906 60.7715 224.183 60.7715C223.597 60.7715 223.083 60.9277 222.64 61.2402C222.198 61.5527 221.853 61.9629 221.605 62.4707V70H219.799V55H221.605V60.7129ZM232.777 70H230.97V59.4336H232.777V70ZM230.824 56.6309C230.824 56.3379 230.912 56.0905 231.088 55.8887C231.27 55.6868 231.537 55.5859 231.888 55.5859C232.24 55.5859 232.507 55.6868 232.689 55.8887C232.872 56.0905 232.963 56.3379 232.963 56.6309C232.963 56.9238 232.872 57.168 232.689 57.3633C232.507 57.5586 232.24 57.6562 231.888 57.6562C231.537 57.6562 231.27 57.5586 231.088 57.3633C230.912 57.168 230.824 56.9238 230.824 56.6309ZM240.785 61.0547C240.511 61.0091 240.215 60.9863 239.896 60.9863C238.711 60.9863 237.907 61.4909 237.484 62.5V70H235.677V59.4336H237.435L237.465 60.6543C238.057 59.7103 238.897 59.2383 239.984 59.2383C240.336 59.2383 240.603 59.2839 240.785 59.375V61.0547ZM249.867 56.875V59.4336H251.84V60.8301H249.867V67.3828C249.867 67.806 249.955 68.125 250.131 68.3398C250.306 68.5482 250.606 68.6523 251.029 68.6523C251.237 68.6523 251.524 68.6133 251.888 68.5352V70C251.413 70.1302 250.951 70.1953 250.502 70.1953C249.694 70.1953 249.086 69.9512 248.676 69.4629C248.265 68.9746 248.06 68.2812 248.06 67.3828V60.8301H246.136V59.4336H248.06V56.875H249.867ZM260.482 70C260.378 69.7917 260.293 69.4206 260.228 68.8867C259.388 69.7591 258.386 70.1953 257.22 70.1953C256.179 70.1953 255.323 69.9023 254.652 69.3164C253.988 68.724 253.656 67.9753 253.656 67.0703C253.656 65.9701 254.073 65.1172 254.906 64.5117C255.746 63.8997 256.924 63.5938 258.441 63.5938H260.199V62.7637C260.199 62.1322 260.01 61.6309 259.633 61.2598C259.255 60.8822 258.698 60.6934 257.963 60.6934C257.318 60.6934 256.778 60.8561 256.342 61.1816C255.905 61.5072 255.687 61.901 255.687 62.3633H253.871C253.871 61.8359 254.056 61.3281 254.427 60.8398C254.805 60.3451 255.313 59.9544 255.951 59.668C256.595 59.3815 257.302 59.2383 258.07 59.2383C259.288 59.2383 260.241 59.5443 260.931 60.1562C261.622 60.7617 261.98 61.5983 262.006 62.666V67.5293C262.006 68.4993 262.129 69.2708 262.377 69.8438V70H260.482ZM257.484 68.623C258.051 68.623 258.588 68.4766 259.095 68.1836C259.603 67.8906 259.971 67.5098 260.199 67.041V64.873H258.783C256.569 64.873 255.463 65.5208 255.463 66.8164C255.463 67.3828 255.651 67.8255 256.029 68.1445C256.407 68.4635 256.892 68.623 257.484 68.623ZM266.644 60.7129C267.445 59.7298 268.487 59.2383 269.769 59.2383C272.002 59.2383 273.129 60.498 273.148 63.0176V70H271.342V63.0078C271.335 62.2461 271.159 61.6829 270.814 61.3184C270.476 60.9538 269.945 60.7715 269.222 60.7715C268.636 60.7715 268.122 60.9277 267.679 61.2402C267.237 61.5527 266.892 61.9629 266.644 62.4707V70H264.838V55H266.644V60.7129ZM282.377 68.9551C281.674 69.7819 280.642 70.1953 279.281 70.1953C278.155 70.1953 277.295 69.8698 276.703 69.2188C276.117 68.5612 275.821 67.5911 275.814 66.3086V59.4336H277.621V66.2598C277.621 67.8613 278.272 68.6621 279.574 68.6621C280.954 68.6621 281.872 68.1478 282.328 67.1191V59.4336H284.135V70H282.416L282.377 68.9551ZM288.597 59.4336L288.656 60.7617C289.463 59.7461 290.518 59.2383 291.82 59.2383C294.053 59.2383 295.179 60.498 295.199 63.0176V70H293.392V63.0078C293.386 62.2461 293.21 61.6829 292.865 61.3184C292.526 60.9538 291.996 60.7715 291.273 60.7715C290.687 60.7715 290.173 60.9277 289.73 61.2402C289.288 61.5527 288.942 61.9629 288.695 62.4707V70H286.888V59.4336H288.597Z" fill="#9C9C9C"/>
<path d="M1013.32 124.905C998.028 124.905 985.634 113.068 985.634 98.4657C985.634 83.8637 998.028 72.0264 1013.32 72.0264C1028.61 72.0264 1041 83.8637 1041 98.4657C1041 113.068 1028.61 124.905 1013.32 124.905Z" fill="#E6E6E6"/>
<path d="M1020.79 137.074L1013.99 141.104V113.862L1021.62 109.345C1022.25 108.972 1022.71 108.385 1022.91 107.702C1022.18 107.569 1021.43 107.703 1020.79 108.076L1013.99 112.106V101.543C1013.99 99.4992 1013.72 97.4633 1013.2 95.4807C1012.68 97.4633 1012.42 99.4992 1012.42 101.543V118.785L1002.38 112.839C1001.57 112.364 1000.65 112.12 999.703 112.135C1000.11 112.948 1000.75 113.633 1001.55 114.108L1012.42 120.541V184.966H1013.99V142.86L1021.62 138.343C1022.25 137.97 1022.71 137.383 1022.91 136.7C1022.18 136.567 1021.43 136.701 1020.79 137.074Z" fill="#CCCCCC"/>
<path d="M1054.32 127.15C1039.03 127.15 1026.63 115.312 1026.63 100.71C1026.63 86.1083 1039.03 74.271 1054.32 74.271C1069.61 74.271 1082 86.1083 1082 100.71C1082 115.312 1069.61 127.15 1054.32 127.15Z" fill="#E6E6E6"/>
<path d="M1046.84 139.319L1053.65 143.349V116.107L1046.02 111.59C1045.38 111.216 1044.92 110.63 1044.72 109.947C1045.45 109.814 1046.21 109.947 1046.84 110.321L1053.65 114.351V103.787C1053.65 101.744 1053.91 99.7079 1054.43 97.7253C1054.95 99.7079 1055.21 101.744 1055.21 103.787V121.029L1065.26 115.084C1066.06 114.609 1066.99 114.364 1067.93 114.379C1067.52 115.193 1066.88 115.878 1066.08 116.352L1055.21 122.785V185.108H1053.65V145.105L1046.02 140.588C1045.38 140.214 1044.92 139.628 1044.72 138.945C1045.45 138.812 1046.21 138.945 1046.84 139.319Z" fill="#CCCCCC"/>
<path d="M1034.21 91.0437C1007.89 91.0437 986.546 70.6629 986.546 45.5219C986.546 20.3808 1007.89 0 1034.21 0C1060.53 0 1081.87 20.3808 1081.87 45.5219C1081.87 70.6629 1060.53 91.0437 1034.21 91.0437Z" fill="#E6E6E6"/>
<path d="M1021.33 111.996L1033.06 118.935V72.0308L1019.91 64.2531C1018.83 63.6101 1018.03 62.6008 1017.69 61.4251L1017.69 61.425H1017.69C1018.94 61.196 1020.24 61.4257 1021.33 62.0687L1033.06 69.0076V50.8196C1033.06 47.3011 1033.51 43.7958 1034.4 40.3823C1035.29 43.7958 1035.75 47.3011 1035.75 50.8196V80.5058L1053.04 70.269C1054.42 69.4516 1056.02 69.0306 1057.65 69.056C1056.95 70.4567 1055.84 71.636 1054.46 72.4534L1035.75 83.529V185.208H1033.06V121.958L1019.91 114.18C1018.83 113.537 1018.03 112.528 1017.69 111.352L1017.69 111.352H1017.69C1018.94 111.123 1020.24 111.353 1021.33 111.996Z" fill="#CCCCCC"/>
<path d="M838 184.966H1062.99V185.51H838V184.966Z" fill="#DCB552"/>
<path d="M895.943 82.1286L907.11 88.2861L900.663 98.9513L889.496 92.7938L895.943 82.1286Z" fill="#FF6584"/>
<path d="M895.802 101.174L902.534 90.0377L890.874 83.6082L884.142 94.7447L895.802 101.174ZM901.756 90.2369L895.593 100.431L884.92 94.5455L891.082 84.3514L901.756 90.2369Z" fill="#DCAD35"/>
<path d="M906.248 131.1C903.26 131.1 900.837 128.786 900.837 125.932C900.837 123.077 903.26 120.763 906.248 120.763C909.237 120.763 911.659 123.077 911.659 125.932C911.659 128.786 909.237 131.1 906.248 131.1Z" fill="#D0CDE1"/>
<path d="M902.261 131.372C903.388 131.372 904.489 131.052 905.426 130.455C906.363 129.857 907.093 129.007 907.524 128.013C907.955 127.019 908.068 125.925 907.848 124.87C907.628 123.815 907.086 122.845 906.289 122.085C905.492 121.324 904.477 120.806 903.373 120.596C902.268 120.386 901.122 120.494 900.082 120.905C899.041 121.317 898.151 122.014 897.525 122.909C896.899 123.804 896.565 124.855 896.565 125.931C896.565 127.374 897.166 128.758 898.234 129.778C899.302 130.798 900.751 131.372 902.261 131.372ZM902.261 121.035C903.275 121.035 904.266 121.322 905.109 121.86C905.952 122.398 906.609 123.163 906.997 124.058C907.385 124.952 907.487 125.937 907.289 126.887C907.091 127.836 906.603 128.709 905.886 129.393C905.169 130.078 904.256 130.545 903.261 130.733C902.267 130.922 901.236 130.825 900.3 130.455C899.363 130.084 898.562 129.457 897.999 128.652C897.436 127.846 897.135 126.9 897.135 125.931C897.135 124.633 897.675 123.387 898.636 122.469C899.598 121.551 900.902 121.035 902.261 121.035Z" fill="#DCAD35"/>
<path d="M872.112 186.203H924.515C925.157 186.203 925.772 185.959 926.226 185.525C926.68 185.092 926.935 184.504 926.936 183.891V137.378C926.935 136.765 926.68 136.177 926.226 135.744C925.772 135.31 925.157 135.066 924.515 135.066H872.112C871.47 135.066 870.855 135.31 870.401 135.744C869.947 136.177 869.692 136.765 869.691 137.378V183.891C869.692 184.504 869.947 185.092 870.401 185.525C870.855 185.959 871.47 186.203 872.112 186.203Z" fill="#E6E6E6"/>
<path d="M894.611 187.836H902.015C902.657 187.835 903.273 187.592 903.726 187.158C904.18 186.725 904.436 186.137 904.436 185.524V135.996C904.436 135.383 904.18 134.795 903.726 134.362C903.273 133.928 902.657 133.684 902.015 133.684H894.611C893.969 133.684 893.354 133.928 892.9 134.362C892.446 134.795 892.191 135.383 892.19 135.996V185.524C892.191 186.137 892.446 186.725 892.9 187.158C893.354 187.592 893.969 187.835 894.611 187.836Z" fill="#DCB552"/>
<path d="M858.189 130.461C858.495 135.259 865.282 138.769 865.282 138.769C865.282 138.769 871.572 134.498 871.266 129.7C870.959 124.902 864.173 121.392 864.173 121.392C864.173 121.392 857.883 125.663 858.189 130.461Z" fill="#DCB552"/>
<path d="M857.881 145.432C862.906 145.155 866.602 138.684 866.602 138.684C866.602 138.684 862.15 132.663 857.125 132.941C852.101 133.218 848.405 139.689 848.405 139.689C848.405 139.689 852.857 145.71 857.881 145.432Z" fill="#DCB552"/>
<path opacity="0.1" d="M869.833 140.756V158.513L888.325 135.202H874.239L869.833 140.756Z" fill="#E6E6E6"/>
<path d="M854.135 171.151C854.509 171.152 854.878 171.07 855.214 170.911C855.549 170.752 855.841 170.522 856.067 170.237L894.593 121.672C894.785 121.43 894.925 121.154 895.006 120.86C895.086 120.567 895.105 120.261 895.062 119.96C895.018 119.659 894.913 119.37 894.752 119.107C894.592 118.845 894.379 118.616 894.125 118.433L888.45 114.326C888.197 114.143 887.908 114.009 887.601 113.932C887.293 113.855 886.973 113.837 886.658 113.879C886.343 113.92 886.04 114.02 885.765 114.174C885.491 114.327 885.251 114.531 885.059 114.773L846.533 163.337C846.341 163.579 846.201 163.855 846.12 164.149C846.04 164.443 846.021 164.749 846.064 165.049C846.108 165.35 846.213 165.64 846.373 165.902C846.534 166.164 846.747 166.393 847 166.576L852.676 170.683C853.095 170.988 853.608 171.152 854.135 171.151Z" fill="#E6E6E6"/>
<path d="M869.556 133.415L879.317 140.478L871.921 149.801L862.16 142.737L869.556 133.415Z" fill="#DCB552"/>
<path d="M919.768 97.8885L923.105 109.784L910.651 112.971L907.313 101.076L919.768 97.8885Z" fill="#D0CDE1"/>
<path d="M915.934 114.75L928.938 111.422L925.454 99.0005L912.449 102.329L915.934 114.75ZM928.241 111.037L916.336 114.083L913.147 102.713L925.051 99.6667L928.241 111.037Z" fill="#DCAD35"/>
<path d="M970.715 143.62C970.373 143.307 970.107 142.926 969.936 142.504C969.764 142.082 969.692 141.63 969.723 141.178C969.755 140.726 969.89 140.287 970.119 139.891C970.347 139.494 970.664 139.15 971.047 138.884L976.277 98.6182L983.034 100.537L975.739 139.722C976.166 140.366 976.33 141.137 976.202 141.889C976.073 142.641 975.66 143.322 975.04 143.803C974.421 144.283 973.639 144.53 972.842 144.496C972.044 144.463 971.288 144.151 970.715 143.62Z" fill="#FFB8B8"/>
<path d="M964.452 182.107H960.5L958.619 167.547H964.452V182.107Z" fill="#FFB8B8"/>
<path d="M952.877 185.612H965.298V181.028H957.237C956.081 181.028 954.972 181.467 954.154 182.248C953.336 183.029 952.877 184.088 952.877 185.193V185.612Z" fill="#DCAD35"/>
<path d="M991.782 176.227L988.078 177.543L981.001 164.524L986.468 162.581L991.782 176.227Z" fill="#FFB8B8"/>
<path d="M982.213 183.367L993.855 179.231L992.182 174.935L984.627 177.619C983.543 178.004 982.663 178.784 982.182 179.789C981.701 180.793 981.657 181.939 982.06 182.974L982.213 183.367L982.213 183.367Z" fill="#DCAD35"/>
<path d="M971.541 88.1652C967.414 88.1652 964.069 84.9698 964.069 81.028C964.069 77.0863 967.414 73.8909 971.541 73.8909C975.668 73.8909 979.014 77.0863 979.014 81.028C979.014 84.9698 975.668 88.1652 971.541 88.1652Z" fill="#FFB8B8"/>
<path d="M983.23 99.3457C983.464 92.7717 976.23 88.2111 970.143 91.2892C969.368 91.6813 961.361 98.1785 961.059 102.213C960.757 106.248 960.154 112.877 960.154 112.877L951.705 173.111L969.81 172.246L967.623 154.675L979.392 172.544L993.648 168.212L976.147 120.082C976.147 120.082 982.875 109.308 983.23 99.3457Z" fill="#DCAD35"/>
<path d="M983.088 101.634L981.925 116.069C981.913 116.22 981.842 116.361 981.726 116.464C981.609 116.566 981.457 116.623 981.299 116.623H976.183C976.08 116.623 975.978 116.599 975.887 116.552C975.796 116.506 975.718 116.438 975.661 116.356C975.603 116.274 975.568 116.18 975.558 116.082C975.548 115.983 975.563 115.884 975.603 115.793L981.881 101.358C981.938 101.226 982.043 101.118 982.176 101.053C982.309 100.989 982.462 100.971 982.608 101.005C982.753 101.038 982.881 101.119 982.969 101.235C983.057 101.35 983.099 101.492 983.088 101.634Z" fill="#DCAD35"/>
<path d="M956.817 141.119C956.516 140.77 956.298 140.362 956.179 139.923C956.061 139.485 956.044 139.027 956.131 138.583C956.218 138.138 956.406 137.716 956.682 137.348C956.957 136.98 957.314 136.674 957.727 136.452L967.855 97.0476L974.331 99.7086L962.284 137.809C962.629 138.496 962.698 139.28 962.478 140.013C962.258 140.745 961.764 141.375 961.09 141.783C960.416 142.191 959.609 142.349 958.821 142.227C958.034 142.104 957.321 141.71 956.817 141.119Z" fill="#FFB8B8"/>
<path d="M973.43 93.5674C973.43 93.5674 975.543 97.6022 973.43 104.807C971.318 112.012 969.809 118.065 969.809 118.065C969.809 118.065 964.981 115.183 962.869 116.047C960.757 116.912 966.21 96.8404 966.21 96.8404C966.21 96.8404 969.508 90.109 973.43 93.5674Z" fill="#DCAD35"/>
<path d="M969.788 82.142C969.687 80.6611 967.731 80.6103 966.177 80.5963C964.624 80.5823 962.766 80.6353 961.887 79.4116C961.306 78.6029 961.417 77.4802 961.897 76.6132C962.377 75.7462 963.166 75.0794 963.943 74.4378C965.948 72.7816 968.015 71.1386 970.423 70.0785C972.83 69.0184 975.652 68.59 978.149 69.441C981.216 70.4864 985.363 75.8675 985.721 78.9591C986.079 82.0507 984.785 85.2024 982.604 87.5126C980.424 89.8229 975.433 88.8907 972.292 89.7126C974.201 87.1314 972.942 82.4411 969.883 81.2357L969.788 82.142Z" fill="#DCAD35"/>
</svg>
