<?xml version="1.0" encoding="UTF-8" standalone="no"?>
<svg
   xmlns:dc="http://purl.org/dc/elements/1.1/"
   xmlns:cc="http://creativecommons.org/ns#"
   xmlns:rdf="http://www.w3.org/1999/02/22-rdf-syntax-ns#"
   xmlns:svg="http://www.w3.org/2000/svg"
   xmlns="http://www.w3.org/2000/svg"
   xmlns:sodipodi="http://sodipodi.sourceforge.net/DTD/sodipodi-0.dtd"
   xmlns:inkscape="http://www.inkscape.org/namespaces/inkscape"
   inkscape:version="1.0 (4035a4fb49, 2020-05-01)"
   sodipodi:docname="banner2.svg"
   id="svg68"
   version="1.1"
   fill="none"
   viewBox="0 0 1082 188"
   height="188"
   width="1082">
  <metadata
     id="metadata74">
    <rdf:RDF>
      <cc:Work
         rdf:about="">
        <dc:format>image/svg+xml</dc:format>
        <dc:type
           rdf:resource="http://purl.org/dc/dcmitype/StillImage" />
        <dc:title></dc:title>
      </cc:Work>
    </rdf:RDF>
  </metadata>
  <defs
     id="defs72" />
  <sodipodi:namedview
     inkscape:current-layer="svg68"
     inkscape:window-maximized="1"
     inkscape:window-y="-8"
     inkscape:window-x="-8"
     inkscape:cy="222.02329"
     inkscape:cx="364.21838"
     inkscape:zoom="0.53373383"
     showgrid="false"
     id="namedview70"
     inkscape:window-height="745"
     inkscape:window-width="1366"
     inkscape:pageshadow="2"
     inkscape:pageopacity="0"
     guidetolerance="10"
     gridtolerance="10"
     objecttolerance="10"
     borderopacity="1"
     bordercolor="#666666"
     pagecolor="#ffffff" />
  <path
     id="path6"
     fill="#E6E6E6"
     d="M1013.32 124.905C998.028 124.905 985.634 113.068 985.634 98.4657C985.634 83.8637 998.028 72.0264 1013.32 72.0264C1028.61 72.0264 1041 83.8637 1041 98.4657C1041 113.068 1028.61 124.905 1013.32 124.905Z" />
  <path
     id="path8"
     fill="#CCCCCC"
     d="M1020.79 137.074L1013.99 141.104V113.862L1021.62 109.345C1022.25 108.972 1022.71 108.385 1022.91 107.702C1022.18 107.569 1021.43 107.703 1020.79 108.076L1013.99 112.106V101.543C1013.99 99.4992 1013.72 97.4633 1013.2 95.4807C1012.68 97.4633 1012.42 99.4992 1012.42 101.543V118.785L1002.38 112.839C1001.57 112.364 1000.65 112.12 999.703 112.135C1000.11 112.948 1000.75 113.633 1001.55 114.108L1012.42 120.541V184.966H1013.99V142.86L1021.62 138.343C1022.25 137.97 1022.71 137.383 1022.91 136.7C1022.18 136.567 1021.43 136.701 1020.79 137.074Z" />
  <path
     id="path10"
     fill="#E6E6E6"
     d="M1054.32 127.15C1039.03 127.15 1026.63 115.312 1026.63 100.71C1026.63 86.1083 1039.03 74.271 1054.32 74.271C1069.61 74.271 1082 86.1083 1082 100.71C1082 115.312 1069.61 127.15 1054.32 127.15Z" />
  <path
     id="path12"
     fill="#CCCCCC"
     d="M1046.84 139.319L1053.65 143.349V116.107L1046.02 111.59C1045.38 111.216 1044.92 110.63 1044.72 109.947C1045.45 109.814 1046.21 109.947 1046.84 110.321L1053.65 114.351V103.787C1053.65 101.744 1053.91 99.7079 1054.43 97.7253C1054.95 99.7079 1055.21 101.744 1055.21 103.787V121.029L1065.26 115.084C1066.06 114.609 1066.99 114.364 1067.93 114.379C1067.52 115.193 1066.88 115.878 1066.08 116.352L1055.21 122.785V185.108H1053.65V145.105L1046.02 140.588C1045.38 140.214 1044.92 139.628 1044.72 138.945C1045.45 138.812 1046.21 138.945 1046.84 139.319Z" />
  <path
     id="path14"
     fill="#E6E6E6"
     d="M1034.21 91.0437C1007.89 91.0437 986.546 70.6629 986.546 45.5219C986.546 20.3808 1007.89 0 1034.21 0C1060.53 0 1081.87 20.3808 1081.87 45.5219C1081.87 70.6629 1060.53 91.0437 1034.21 91.0437Z" />
  <path
     id="path16"
     fill="#CCCCCC"
     d="M1021.33 111.996L1033.06 118.935V72.0308L1019.91 64.2531C1018.83 63.6101 1018.03 62.6008 1017.69 61.4251L1017.69 61.425H1017.69C1018.94 61.196 1020.24 61.4257 1021.33 62.0687L1033.06 69.0076V50.8196C1033.06 47.3011 1033.51 43.7958 1034.4 40.3823C1035.29 43.7958 1035.75 47.3011 1035.75 50.8196V80.5058L1053.04 70.269C1054.42 69.4516 1056.02 69.0306 1057.65 69.056C1056.95 70.4567 1055.84 71.636 1054.46 72.4534L1035.75 83.529V185.208H1033.06V121.958L1019.91 114.18C1018.83 113.537 1018.03 112.528 1017.69 111.352L1017.69 111.352H1017.69C1018.94 111.123 1020.24 111.353 1021.33 111.996Z" />
  <path
     id="path18"
     fill="#DCB552"
     d="M838 184.966H1062.99V185.51H838V184.966Z" />
  <path
     id="path20"
     fill="#FF6584"
     d="M895.943 82.1286L907.11 88.2861L900.663 98.9513L889.496 92.7938L895.943 82.1286Z" />
  <path
     id="path22"
     fill="#DCAD35"
     d="M895.802 101.174L902.534 90.0377L890.874 83.6082L884.142 94.7447L895.802 101.174ZM901.756 90.2369L895.593 100.431L884.92 94.5455L891.082 84.3514L901.756 90.2369Z" />
  <path
     id="path24"
     fill="#D0CDE1"
     d="M906.248 131.1C903.26 131.1 900.837 128.786 900.837 125.932C900.837 123.077 903.26 120.763 906.248 120.763C909.237 120.763 911.659 123.077 911.659 125.932C911.659 128.786 909.237 131.1 906.248 131.1Z" />
  <path
     id="path26"
     fill="#DCAD35"
     d="M902.261 131.372C903.388 131.372 904.489 131.052 905.426 130.455C906.363 129.857 907.093 129.007 907.524 128.013C907.955 127.019 908.068 125.925 907.848 124.87C907.628 123.815 907.086 122.845 906.289 122.085C905.492 121.324 904.477 120.806 903.373 120.596C902.268 120.386 901.122 120.494 900.082 120.905C899.041 121.317 898.151 122.014 897.525 122.909C896.899 123.804 896.565 124.855 896.565 125.931C896.565 127.374 897.166 128.758 898.234 129.778C899.302 130.798 900.751 131.372 902.261 131.372ZM902.261 121.035C903.275 121.035 904.266 121.322 905.109 121.86C905.952 122.398 906.609 123.163 906.997 124.058C907.385 124.952 907.487 125.937 907.289 126.887C907.091 127.836 906.603 128.709 905.886 129.393C905.169 130.078 904.256 130.545 903.261 130.733C902.267 130.922 901.236 130.825 900.3 130.455C899.363 130.084 898.562 129.457 897.999 128.652C897.436 127.846 897.135 126.9 897.135 125.931C897.135 124.633 897.675 123.387 898.636 122.469C899.598 121.551 900.902 121.035 902.261 121.035Z" />
  <path
     id="path28"
     fill="#E6E6E6"
     d="M872.112 186.203H924.515C925.157 186.203 925.772 185.959 926.226 185.525C926.68 185.092 926.935 184.504 926.936 183.891V137.378C926.935 136.765 926.68 136.177 926.226 135.744C925.772 135.31 925.157 135.066 924.515 135.066H872.112C871.47 135.066 870.855 135.31 870.401 135.744C869.947 136.177 869.692 136.765 869.691 137.378V183.891C869.692 184.504 869.947 185.092 870.401 185.525C870.855 185.959 871.47 186.203 872.112 186.203Z" />
  <path
     id="path30"
     fill="#DCB552"
     d="M894.611 187.836H902.015C902.657 187.835 903.273 187.592 903.726 187.158C904.18 186.725 904.436 186.137 904.436 185.524V135.996C904.436 135.383 904.18 134.795 903.726 134.362C903.273 133.928 902.657 133.684 902.015 133.684H894.611C893.969 133.684 893.354 133.928 892.9 134.362C892.446 134.795 892.191 135.383 892.19 135.996V185.524C892.191 186.137 892.446 186.725 892.9 187.158C893.354 187.592 893.969 187.835 894.611 187.836Z" />
  <path
     id="path32"
     fill="#DCB552"
     d="M858.189 130.461C858.495 135.259 865.282 138.769 865.282 138.769C865.282 138.769 871.572 134.498 871.266 129.7C870.959 124.902 864.173 121.392 864.173 121.392C864.173 121.392 857.883 125.663 858.189 130.461Z" />
  <path
     id="path34"
     fill="#DCB552"
     d="M857.881 145.432C862.906 145.155 866.602 138.684 866.602 138.684C866.602 138.684 862.15 132.663 857.125 132.941C852.101 133.218 848.405 139.689 848.405 139.689C848.405 139.689 852.857 145.71 857.881 145.432Z" />
  <path
     id="path36"
     fill="#E6E6E6"
     d="M869.833 140.756V158.513L888.325 135.202H874.239L869.833 140.756Z"
     opacity="0.1" />
  <path
     id="path38"
     fill="#E6E6E6"
     d="M854.135 171.151C854.509 171.152 854.878 171.07 855.214 170.911C855.549 170.752 855.841 170.522 856.067 170.237L894.593 121.672C894.785 121.43 894.925 121.154 895.006 120.86C895.086 120.567 895.105 120.261 895.062 119.96C895.018 119.659 894.913 119.37 894.752 119.107C894.592 118.845 894.379 118.616 894.125 118.433L888.45 114.326C888.197 114.143 887.908 114.009 887.601 113.932C887.293 113.855 886.973 113.837 886.658 113.879C886.343 113.92 886.04 114.02 885.765 114.174C885.491 114.327 885.251 114.531 885.059 114.773L846.533 163.337C846.341 163.579 846.201 163.855 846.12 164.149C846.04 164.443 846.021 164.749 846.064 165.049C846.108 165.35 846.213 165.64 846.373 165.902C846.534 166.164 846.747 166.393 847 166.576L852.676 170.683C853.095 170.988 853.608 171.152 854.135 171.151Z" />
  <path
     id="path40"
     fill="#DCB552"
     d="M869.556 133.415L879.317 140.478L871.921 149.801L862.16 142.737L869.556 133.415Z" />
  <path
     id="path42"
     fill="#D0CDE1"
     d="M919.768 97.8885L923.105 109.784L910.651 112.971L907.313 101.076L919.768 97.8885Z" />
  <path
     id="path44"
     fill="#DCAD35"
     d="M915.934 114.75L928.938 111.422L925.454 99.0005L912.449 102.329L915.934 114.75ZM928.241 111.037L916.336 114.083L913.147 102.713L925.051 99.6667L928.241 111.037Z" />
  <path
     id="path46"
     fill="#FFB8B8"
     d="M970.715 143.62C970.373 143.307 970.107 142.926 969.936 142.504C969.764 142.082 969.692 141.63 969.723 141.178C969.755 140.726 969.89 140.287 970.119 139.891C970.347 139.494 970.664 139.15 971.047 138.884L976.277 98.6182L983.034 100.537L975.739 139.722C976.166 140.366 976.33 141.137 976.202 141.889C976.073 142.641 975.66 143.322 975.04 143.803C974.421 144.283 973.639 144.53 972.842 144.496C972.044 144.463 971.288 144.151 970.715 143.62Z" />
  <path
     id="path48"
     fill="#FFB8B8"
     d="M964.452 182.107H960.5L958.619 167.547H964.452V182.107Z" />
  <path
     id="path50"
     fill="#DCAD35"
     d="M952.877 185.612H965.298V181.028H957.237C956.081 181.028 954.972 181.467 954.154 182.248C953.336 183.029 952.877 184.088 952.877 185.193V185.612Z" />
  <path
     id="path52"
     fill="#FFB8B8"
     d="M991.782 176.227L988.078 177.543L981.001 164.524L986.468 162.581L991.782 176.227Z" />
  <path
     id="path54"
     fill="#DCAD35"
     d="M982.213 183.367L993.855 179.231L992.182 174.935L984.627 177.619C983.543 178.004 982.663 178.784 982.182 179.789C981.701 180.793 981.657 181.939 982.06 182.974L982.213 183.367L982.213 183.367Z" />
  <path
     id="path56"
     fill="#FFB8B8"
     d="M971.541 88.1652C967.414 88.1652 964.069 84.9698 964.069 81.028C964.069 77.0863 967.414 73.8909 971.541 73.8909C975.668 73.8909 979.014 77.0863 979.014 81.028C979.014 84.9698 975.668 88.1652 971.541 88.1652Z" />
  <path
     id="path58"
     fill="#DCAD35"
     d="M983.23 99.3457C983.464 92.7717 976.23 88.2111 970.143 91.2892C969.368 91.6813 961.361 98.1785 961.059 102.213C960.757 106.248 960.154 112.877 960.154 112.877L951.705 173.111L969.81 172.246L967.623 154.675L979.392 172.544L993.648 168.212L976.147 120.082C976.147 120.082 982.875 109.308 983.23 99.3457Z" />
  <path
     id="path60"
     fill="#DCAD35"
     d="M983.088 101.634L981.925 116.069C981.913 116.22 981.842 116.361 981.726 116.464C981.609 116.566 981.457 116.623 981.299 116.623H976.183C976.08 116.623 975.978 116.599 975.887 116.552C975.796 116.506 975.718 116.438 975.661 116.356C975.603 116.274 975.568 116.18 975.558 116.082C975.548 115.983 975.563 115.884 975.603 115.793L981.881 101.358C981.938 101.226 982.043 101.118 982.176 101.053C982.309 100.989 982.462 100.971 982.608 101.005C982.753 101.038 982.881 101.119 982.969 101.235C983.057 101.35 983.099 101.492 983.088 101.634Z" />
  <path
     id="path62"
     fill="#FFB8B8"
     d="M956.817 141.119C956.516 140.77 956.298 140.362 956.179 139.923C956.061 139.485 956.044 139.027 956.131 138.583C956.218 138.138 956.406 137.716 956.682 137.348C956.957 136.98 957.314 136.674 957.727 136.452L967.855 97.0476L974.331 99.7086L962.284 137.809C962.629 138.496 962.698 139.28 962.478 140.013C962.258 140.745 961.764 141.375 961.09 141.783C960.416 142.191 959.609 142.349 958.821 142.227C958.034 142.104 957.321 141.71 956.817 141.119Z" />
  <path
     id="path64"
     fill="#DCAD35"
     d="M973.43 93.5674C973.43 93.5674 975.543 97.6022 973.43 104.807C971.318 112.012 969.809 118.065 969.809 118.065C969.809 118.065 964.981 115.183 962.869 116.047C960.757 116.912 966.21 96.8404 966.21 96.8404C966.21 96.8404 969.508 90.109 973.43 93.5674Z" />
  <path
     id="path66"
     fill="#DCAD35"
     d="M969.788 82.142C969.687 80.6611 967.731 80.6103 966.177 80.5963C964.624 80.5823 962.766 80.6353 961.887 79.4116C961.306 78.6029 961.417 77.4802 961.897 76.6132C962.377 75.7462 963.166 75.0794 963.943 74.4378C965.948 72.7816 968.015 71.1386 970.423 70.0785C972.83 69.0184 975.652 68.59 978.149 69.441C981.216 70.4864 985.363 75.8675 985.721 78.9591C986.079 82.0507 984.785 85.2024 982.604 87.5126C980.424 89.8229 975.433 88.8907 972.292 89.7126C974.201 87.1314 972.942 82.4411 969.883 81.2357L969.788 82.142Z" />
</svg>
