<svg width="27" height="28" viewBox="0 0 27 28" fill="none" xmlns="http://www.w3.org/2000/svg">
<path d="M26.4636 22.3767C25.5974 21.6384 24.839 20.792 24.2089 19.8604C23.521 18.5743 23.1087 17.1698 22.9962 15.7294V11.4868C23.0022 9.22432 22.1438 7.03763 20.5823 5.33758C19.0208 3.63753 16.8637 2.54115 14.5164 2.25442V1.14653C14.5164 0.842453 14.39 0.550828 14.1651 0.335812C13.9402 0.120795 13.6352 0 13.3171 0C12.9991 0 12.6941 0.120795 12.4692 0.335812C12.2443 0.550828 12.1179 0.842453 12.1179 1.14653V2.27159C9.79159 2.57899 7.66059 3.68201 6.11963 5.37634C4.57866 7.07068 3.73215 9.24152 3.73689 11.4868V15.7294C3.62438 17.1698 3.21208 18.5743 2.52419 19.8604C1.90517 20.7899 1.15897 21.6362 0.305419 22.3767C0.209599 22.4572 0.132804 22.5563 0.0801431 22.6673C0.0274818 22.7784 0.000161509 22.8989 0 23.0208V24.1888C0 24.4166 0.0946409 24.6351 0.263103 24.7961C0.431565 24.9572 0.660049 25.0477 0.89829 25.0477H25.8707C26.109 25.0477 26.3375 24.9572 26.5059 24.7961C26.6744 24.6351 26.769 24.4166 26.769 24.1888V23.0208C26.7689 22.8989 26.7416 22.7784 26.6889 22.6673C26.6362 22.5563 26.5594 22.4572 26.4636 22.3767ZM1.86844 23.33C2.70422 22.5581 3.44009 21.6931 4.06027 20.7535C4.92677 19.2003 5.43235 17.4866 5.54245 15.7294V11.4868C5.50682 10.4803 5.68341 9.47721 6.0617 8.5373C6.43999 7.5974 7.01224 6.73988 7.74438 6.01582C8.47652 5.29176 9.35357 4.71596 10.3233 4.32271C11.293 3.92946 12.3356 3.7268 13.389 3.7268C14.4424 3.7268 15.485 3.92946 16.4547 4.32271C17.4244 4.71596 18.3015 5.29176 19.0336 6.01582C19.7658 6.73988 20.338 7.5974 20.7163 8.5373C21.0946 9.47721 21.2712 10.4803 21.2356 11.4868V15.7294C21.3457 17.4866 21.8512 19.2003 22.7178 20.7535C23.3379 21.6931 24.0738 22.5581 24.9096 23.33H1.86844Z" fill="#363636"/>
<path d="M13.4297 27.9161C13.9955 27.9037 14.5386 27.7003 14.9627 27.3419C15.3868 26.9836 15.6647 26.4934 15.7473 25.958H11.0222C11.1071 26.5079 11.398 27.0097 11.8408 27.3698C12.2837 27.73 12.8483 27.9242 13.4297 27.9161Z" fill="#363636"/>
</svg>
