<svg width="244" height="188" viewBox="0 0 244 188" fill="none" xmlns="http://www.w3.org/2000/svg">
<path d="M175.316 124.905C160.028 124.905 147.634 113.068 147.634 98.4657C147.634 83.8637 160.028 72.0264 175.316 72.0264C190.605 72.0264 202.999 83.8637 202.999 98.4657C202.999 113.068 190.605 124.905 175.316 124.905Z" fill="#E6E6E6"/>
<path d="M182.795 137.074L175.985 141.104V113.862L183.618 109.345C184.249 108.972 184.71 108.385 184.91 107.702C184.181 107.569 183.426 107.703 182.795 108.076L175.985 112.106V101.543C175.985 99.4992 175.723 97.4633 175.204 95.4807C174.685 97.4633 174.423 99.4992 174.423 101.543V118.785L164.377 112.839C163.574 112.364 162.646 112.12 161.703 112.135C162.109 112.948 162.751 113.633 163.553 114.108L174.423 120.541V184.966H175.985V142.86L183.618 138.343C184.249 137.97 184.71 137.383 184.91 136.7C184.181 136.567 183.426 136.701 182.795 137.074Z" fill="#CCCCCC"/>
<path d="M216.317 127.15C201.029 127.15 188.635 115.312 188.635 100.71C188.635 86.1083 201.029 74.271 216.317 74.271C231.606 74.271 244 86.1083 244 100.71C244 115.312 231.606 127.15 216.317 127.15Z" fill="#E6E6E6"/>
<path d="M208.838 139.319L215.648 143.349V116.107L208.015 111.59C207.384 111.216 206.923 110.63 206.723 109.947C207.452 109.814 208.207 109.947 208.838 110.321L215.648 114.351V103.787C215.648 101.744 215.91 99.7079 216.429 97.7253C216.948 99.7079 217.211 101.744 217.211 103.787V121.029L227.257 115.084C228.059 114.609 228.987 114.364 229.93 114.379C229.524 115.193 228.882 115.878 228.08 116.352L217.211 122.785V185.108H215.648V145.105L208.015 140.588C207.384 140.214 206.923 139.628 206.723 138.945C207.452 138.812 208.207 138.945 208.838 139.319Z" fill="#CCCCCC"/>
<path d="M196.208 91.0437C169.885 91.0437 148.546 70.6629 148.546 45.5219C148.546 20.3808 169.885 0 196.208 0C222.532 0 243.871 20.3808 243.871 45.5219C243.871 70.6629 222.532 91.0437 196.208 91.0437Z" fill="#E6E6E6"/>
<path d="M183.331 111.996L195.055 118.935V72.0308L181.914 64.2531C180.827 63.6101 180.033 62.6008 179.689 61.4251L179.689 61.425H179.689C180.945 61.196 182.245 61.4257 183.331 62.0687L195.055 69.0076V50.8196C195.055 47.3011 195.507 43.7958 196.401 40.3823C197.294 43.7958 197.746 47.3011 197.746 50.8196V80.5058L215.043 70.269C216.424 69.4516 218.022 69.0306 219.646 69.056C218.947 70.4567 217.841 71.636 216.46 72.4534L197.746 83.529V185.208H195.055V121.958L181.914 114.18C180.827 113.537 180.033 112.528 179.689 111.352L179.689 111.352H179.689C180.945 111.123 182.245 111.353 183.331 111.996Z" fill="#CCCCCC"/>
<path d="M-3.05176e-05 184.966H224.991V185.51H-3.05176e-05V184.966Z" fill="#DCB552"/>
<path d="M57.9435 82.1286L69.1101 88.2861L62.6631 98.9513L51.4964 92.7938L57.9435 82.1286Z" fill="#FF6584"/>
<path d="M57.8019 101.174L64.5339 90.0377L52.8738 83.6082L46.1418 94.7447L57.8019 101.174ZM63.7557 90.2369L57.5933 100.431L46.92 94.5455L53.0824 84.3514L63.7557 90.2369Z" fill="#DCAD35"/>
<path d="M68.2483 131.1C65.2598 131.1 62.8371 128.786 62.8371 125.932C62.8371 123.077 65.2598 120.763 68.2483 120.763C71.2368 120.763 73.6594 123.077 73.6594 125.932C73.6594 128.786 71.2368 131.1 68.2483 131.1Z" fill="#D0CDE1"/>
<path d="M64.2613 131.372C65.3879 131.372 66.4891 131.052 67.4258 130.455C68.3625 129.857 69.0926 129.007 69.5237 128.013C69.9548 127.019 70.0676 125.925 69.8478 124.87C69.628 123.815 69.0856 122.845 68.289 122.085C67.4924 121.324 66.4775 120.806 65.3726 120.596C64.2677 120.386 63.1224 120.494 62.0816 120.905C61.0408 121.317 60.1512 122.014 59.5253 122.909C58.8994 123.804 58.5654 124.855 58.5654 125.931C58.5654 127.374 59.1655 128.758 60.2337 129.778C61.3019 130.798 62.7507 131.372 64.2613 131.372ZM64.2613 121.035C65.2752 121.035 66.2664 121.322 67.1094 121.86C67.9524 122.398 68.6095 123.163 68.9975 124.058C69.3855 124.952 69.487 125.937 69.2892 126.887C69.0914 127.836 68.6031 128.709 67.8862 129.393C67.1693 130.078 66.2559 130.545 65.2614 130.733C64.267 130.922 63.2363 130.825 62.2996 130.455C61.3628 130.084 60.5622 129.457 59.9989 128.652C59.4356 127.846 59.135 126.9 59.135 125.931C59.135 124.633 59.6751 123.387 60.6365 122.469C61.5978 121.551 62.9017 121.035 64.2613 121.035Z" fill="#DCAD35"/>
<path d="M34.1117 186.203H86.5148C87.1566 186.203 87.7719 185.959 88.2257 185.525C88.6795 185.092 88.9348 184.504 88.9355 183.891V137.378C88.9348 136.765 88.6795 136.177 88.2257 135.744C87.7719 135.31 87.1566 135.066 86.5148 135.066H34.1117C33.4699 135.066 32.8546 135.31 32.4008 135.744C31.947 136.177 31.6917 136.765 31.6909 137.378V183.891C31.6917 184.504 31.947 185.092 32.4008 185.525C32.8546 185.959 33.4699 186.203 34.1117 186.203Z" fill="#E6E6E6"/>
<path d="M56.6107 187.836H64.0155C64.6573 187.835 65.2726 187.592 65.7264 187.158C66.1802 186.725 66.4355 186.137 66.4363 185.524V135.996C66.4355 135.383 66.1802 134.795 65.7264 134.362C65.2726 133.928 64.6573 133.684 64.0155 133.684H56.6107C55.9689 133.684 55.3536 133.928 54.8998 134.362C54.446 134.795 54.1907 135.383 54.19 135.996V185.524C54.1907 186.137 54.446 186.725 54.8998 187.158C55.3536 187.592 55.9689 187.835 56.6107 187.836Z" fill="#DCB552"/>
<path d="M20.1891 130.461C20.4952 135.259 27.2816 138.769 27.2816 138.769C27.2816 138.769 33.5717 134.498 33.2655 129.7C32.9594 124.902 26.173 121.392 26.173 121.392C26.173 121.392 19.8829 125.663 20.1891 130.461Z" fill="#DCB552"/>
<path d="M19.8815 145.432C24.9063 145.155 28.6018 138.684 28.6018 138.684C28.6018 138.684 24.1503 132.663 19.1254 132.941C14.1005 133.218 10.4051 139.689 10.4051 139.689C10.4051 139.689 14.8566 145.71 19.8815 145.432Z" fill="#DCB552"/>
<path opacity="0.1" d="M31.8333 140.756V158.513L50.3252 135.202H36.2391L31.8333 140.756Z" fill="#E6E6E6"/>
<path d="M16.1346 171.151C16.5089 171.152 16.8782 171.07 17.2135 170.911C17.5488 170.752 17.8409 170.522 18.0669 170.237L56.5929 121.672C56.7849 121.43 56.9251 121.154 57.0055 120.86C57.0859 120.567 57.105 120.261 57.0615 119.96C57.0181 119.659 56.9131 119.37 56.7525 119.107C56.5919 118.845 56.3788 118.616 56.1254 118.433L50.4503 114.326C50.1969 114.143 49.9082 114.009 49.6006 113.932C49.293 113.855 48.9726 113.837 48.6577 113.879C48.3428 113.92 48.0395 114.02 47.7652 114.174C47.4909 114.327 47.2509 114.531 47.059 114.773L8.53296 163.337C8.34097 163.579 8.20076 163.855 8.12036 164.149C8.03995 164.443 8.0209 164.749 8.06432 165.049C8.10773 165.35 8.21276 165.64 8.37338 165.902C8.53401 166.164 8.7471 166.393 9.00048 166.576L14.6756 170.683C15.0952 170.988 15.6077 171.152 16.1346 171.151Z" fill="#E6E6E6"/>
<path d="M31.5559 133.415L41.3169 140.478L33.9213 149.801L24.1603 142.737L31.5559 133.415Z" fill="#DCB552"/>
<path d="M81.768 97.8885L85.1052 109.784L72.6505 112.971L69.3133 101.076L81.768 97.8885Z" fill="#D0CDE1"/>
<path d="M77.9337 114.75L90.9385 111.422L87.4539 99.0005L74.4491 102.329L77.9337 114.75ZM90.2409 111.037L78.3364 114.083L75.1466 102.713L87.0511 99.6667L90.2409 111.037Z" fill="#DCAD35"/>
<path d="M132.715 143.62C132.373 143.307 132.107 142.926 131.936 142.504C131.764 142.082 131.692 141.63 131.723 141.178C131.755 140.726 131.89 140.287 132.119 139.891C132.347 139.494 132.664 139.15 133.047 138.884L138.277 98.6182L145.034 100.537L137.739 139.722C138.166 140.366 138.33 141.137 138.202 141.889C138.073 142.641 137.66 143.322 137.04 143.803C136.421 144.283 135.639 144.53 134.842 144.496C134.044 144.463 133.288 144.151 132.715 143.62Z" fill="#FFB8B8"/>
<path d="M126.452 182.107H122.5L120.619 167.547H126.452V182.107Z" fill="#FFB8B8"/>
<path d="M114.877 185.612H127.298V181.028H119.237C118.081 181.028 116.972 181.467 116.154 182.248C115.336 183.029 114.877 184.088 114.877 185.193V185.612Z" fill="#DCAD35"/>
<path d="M153.782 176.227L150.078 177.543L143.001 164.524L148.468 162.581L153.782 176.227Z" fill="#FFB8B8"/>
<path d="M144.213 183.367L155.855 179.231L154.182 174.935L146.627 177.619C145.543 178.004 144.663 178.784 144.182 179.789C143.701 180.793 143.657 181.939 144.06 182.974L144.213 183.367L144.213 183.367Z" fill="#DCAD35"/>
<path d="M133.541 88.1652C129.414 88.1652 126.069 84.9698 126.069 81.028C126.069 77.0863 129.414 73.8909 133.541 73.8909C137.668 73.8909 141.014 77.0863 141.014 81.028C141.014 84.9698 137.668 88.1652 133.541 88.1652Z" fill="#FFB8B8"/>
<path d="M145.23 99.3457C145.464 92.7717 138.23 88.2111 132.143 91.2892C131.368 91.6813 123.361 98.1785 123.059 102.213C122.757 106.248 122.154 112.877 122.154 112.877L113.705 173.111L131.81 172.246L129.623 154.675L141.392 172.544L155.648 168.212L138.147 120.082C138.147 120.082 144.875 109.308 145.23 99.3457Z" fill="#DCAD35"/>
<path d="M145.088 101.634L143.925 116.069C143.913 116.22 143.842 116.361 143.726 116.464C143.609 116.566 143.457 116.623 143.299 116.623H138.183C138.08 116.623 137.978 116.599 137.887 116.552C137.796 116.506 137.718 116.438 137.661 116.356C137.603 116.274 137.568 116.18 137.558 116.082C137.548 115.983 137.563 115.884 137.603 115.793L143.881 101.358C143.938 101.226 144.043 101.118 144.176 101.053C144.309 100.989 144.462 100.971 144.608 101.005C144.753 101.038 144.881 101.119 144.969 101.235C145.057 101.35 145.099 101.492 145.088 101.634Z" fill="#DCAD35"/>
<path d="M118.817 141.119C118.516 140.77 118.298 140.362 118.179 139.923C118.061 139.485 118.044 139.027 118.131 138.583C118.218 138.138 118.406 137.716 118.682 137.348C118.957 136.98 119.314 136.674 119.727 136.452L129.855 97.0476L136.331 99.7086L124.284 137.809C124.629 138.496 124.698 139.28 124.478 140.013C124.258 140.745 123.764 141.375 123.09 141.783C122.416 142.191 121.609 142.349 120.821 142.227C120.034 142.104 119.321 141.71 118.817 141.119Z" fill="#FFB8B8"/>
<path d="M135.43 93.5674C135.43 93.5674 137.543 97.6022 135.43 104.807C133.318 112.012 131.809 118.065 131.809 118.065C131.809 118.065 126.981 115.183 124.869 116.047C122.757 116.912 128.21 96.8404 128.21 96.8404C128.21 96.8404 131.508 90.109 135.43 93.5674Z" fill="#DCAD35"/>
<path d="M131.788 82.142C131.687 80.6611 129.731 80.6103 128.177 80.5963C126.624 80.5823 124.766 80.6353 123.887 79.4116C123.306 78.6029 123.417 77.4802 123.897 76.6132C124.377 75.7462 125.166 75.0794 125.943 74.4378C127.948 72.7816 130.015 71.1386 132.423 70.0785C134.83 69.0184 137.652 68.59 140.149 69.441C143.216 70.4864 147.363 75.8675 147.721 78.9591C148.079 82.0507 146.785 85.2024 144.604 87.5126C142.424 89.8229 137.433 88.8907 134.292 89.7126C136.201 87.1314 134.942 82.4411 131.883 81.2357L131.788 82.142Z" fill="#DCAD35"/>
</svg>
