<svg width="191" height="32" viewBox="0 0 191 32" fill="none" xmlns="http://www.w3.org/2000/svg">
<path fill-rule="evenodd" clip-rule="evenodd" d="M84.1978 9.87561H78.5906V17.4126H70.6577V23.036H78.5906V30.8117H84.1978V23.036H91.5333V17.4126H84.1978V9.87561Z" fill="#F19933"/>
<mask id="mask0" mask-type="alpha" maskUnits="userSpaceOnUse" x="78" y="9" width="7" height="22">
<rect x="78.5908" y="9.87561" width="5.60718" height="20.9361" fill="white"/>
</mask>
<g mask="url(#mask0)">
<path d="M86.9402 14.0627H76.5024L77.3487 8.08097L86.376 7.36316L86.9402 14.0627Z" fill="#2F2B29"/>
</g>
<path d="M22.0391 19.8724C22.0391 17.678 22.4604 15.722 23.303 14.0046C24.1456 12.2872 25.3552 10.9583 26.9318 10.0178C28.5219 9.07728 30.3635 8.60704 32.4565 8.60704C35.4329 8.60704 37.8588 9.52027 39.7344 11.3467C41.6235 13.1732 42.6768 15.6539 42.8943 18.7888L42.935 20.3018C42.935 23.6957 41.9905 26.4218 40.1013 28.48C38.2122 30.5245 35.6775 31.5468 32.4972 31.5468C29.317 31.5468 26.7755 30.5245 24.8728 28.48C22.9836 26.4354 22.0391 23.6548 22.0391 20.1382V19.8724ZM27.9307 20.3018C27.9307 22.4009 28.3248 24.0092 29.1131 25.1269C29.9014 26.231 31.0294 26.783 32.4972 26.783C33.9243 26.783 35.0387 26.2378 35.8406 25.1474C36.6425 24.0433 37.0434 22.285 37.0434 19.8724C37.0434 17.8143 36.6425 16.2195 35.8406 15.0882C35.0387 13.9569 33.9107 13.3913 32.4565 13.3913C31.0158 13.3913 29.9014 13.9569 29.1131 15.0882C28.3248 16.2059 27.9307 17.9438 27.9307 20.3018Z" fill="#F19933"/>
<path d="M49.7449 31.1379H43.8329V9.01595H49.7449V31.1379ZM43.4863 3.29124C43.4863 2.40527 43.7785 1.67605 44.3629 1.10358C44.9609 0.531109 45.7696 0.244873 46.7889 0.244873C47.7946 0.244873 48.5965 0.531109 49.1945 1.10358C49.7925 1.67605 50.0915 2.40527 50.0915 3.29124C50.0915 4.19083 49.7857 4.92687 49.1741 5.49934C48.5761 6.07181 47.781 6.35805 46.7889 6.35805C45.7967 6.35805 44.9949 6.07181 44.3833 5.49934C43.7853 4.92687 43.4863 4.19083 43.4863 3.29124Z" fill="#F19933"/>
<path d="M56.6379 9.01595V10.9223C57.4265 8.60704 60.1648 8.60704 62.815 8.60704C65.1526 8.60704 66.8923 9.29537 68.0339 10.672C69.1755 12.0487 69.7599 14.1068 69.7871 16.8465V31.1379H63.8955V16.9896C63.8955 15.7357 63.6236 14.8293 63.08 14.2704C62.5364 13.6979 61.6326 13.4117 60.3686 13.4117C58.7105 13.4117 57.467 14.1205 56.6379 15.538V31.1379H50.7463V9.01595H56.6379Z" fill="#F19933"/>
<path d="M6.1159 31.6392V20.7418H11.4775C14.9975 20.7418 17.7497 19.9035 19.734 18.227C21.7318 16.5369 22.7307 14.2333 22.7307 11.3165C22.7307 9.3946 22.2755 7.68401 21.3649 6.18468C20.4543 4.67172 19.1495 3.50633 17.4507 2.68852C15.7654 1.8707 13.8083 1.46179 11.5794 1.46179H0L6.1159 6.43002H11.7221C13.2307 6.45728 14.4131 6.92071 15.2694 7.82031C16.1256 8.71991 16.5537 9.89892 16.5537 11.3574C16.5537 12.7749 16.1256 13.8653 15.2694 14.6286C14.4267 15.3919 13.1967 15.7736 11.5794 15.7736H6.1159C2.49651 15.7736 0 17.125 0 20.7418V31.6392H6.1159Z" fill="#F19933"/>
<mask id="mask1" mask-type="alpha" maskUnits="userSpaceOnUse" x="0" y="1" width="23" height="31">
<path d="M6.1159 31.6392V20.7418H11.4775C14.9975 20.7418 17.7497 19.9035 19.734 18.227C21.7318 16.5369 22.7307 14.2333 22.7307 11.3165C22.7307 9.3946 22.2755 7.68401 21.3649 6.18468C20.4543 4.67172 19.1495 3.50633 17.4507 2.68852C15.7654 1.8707 13.8083 1.46179 11.5794 1.46179H0C0 3.31397 1.93279 6.43002 6.1159 6.43002H11.7221C13.2307 6.45728 14.4131 6.92071 15.2694 7.82031C16.1256 8.71991 16.5537 9.89892 16.5537 11.3574C16.5537 12.7749 16.1256 13.8653 15.2694 14.6286C14.4267 15.3919 13.1967 15.7736 11.5794 15.7736H6.1159L0 20.7418V31.6392H6.1159Z" fill="#544035"/>
</mask>
<g mask="url(#mask1)">
<path d="M6.12253 0.454326V6.73515L-2.2277 9.03812L-3.27148 -1.63928L6.12253 0.454326Z" fill="#2F2B29"/>
</g>
<path d="M111.54 23.5976C111.54 22.4132 111.123 21.5075 110.289 20.8805C109.456 20.2395 107.955 19.5707 105.788 18.8739C103.62 18.1633 101.904 17.4666 100.64 16.7838C97.1944 14.9166 95.4715 12.4015 95.4715 9.23841C95.4715 7.59416 95.93 6.13107 96.847 4.84912C97.7779 3.55323 99.1048 2.543 100.828 1.81842C102.564 1.09384 104.51 0.731548 106.663 0.731548C108.831 0.731548 110.762 1.12867 112.457 1.92293C114.152 2.70324 115.465 3.81102 116.396 5.24624C117.341 6.68147 117.813 8.31178 117.813 10.1372H111.561C111.561 8.74374 111.123 7.66384 110.248 6.89745C109.372 6.11713 108.143 5.72698 106.559 5.72698C105.031 5.72698 103.843 6.05443 102.995 6.70934C102.148 7.35032 101.724 8.2003 101.724 9.25931C101.724 10.2486 102.217 11.0777 103.204 11.7466C104.204 12.4154 105.67 13.0425 107.601 13.6277C111.158 14.7006 113.749 16.0314 115.375 17.6199C117 19.2084 117.813 21.187 117.813 23.5558C117.813 26.1894 116.82 28.2587 114.833 29.7636C112.846 31.2545 110.171 32 106.809 32C104.475 32 102.349 31.575 100.432 30.725C98.5143 29.8611 97.0485 28.6836 96.0342 27.1927C95.0339 25.7017 94.5337 23.9739 94.5337 22.0091H100.807C100.807 25.3673 102.808 27.0464 106.809 27.0464C108.296 27.0464 109.456 26.7468 110.289 26.1476C111.123 25.5345 111.54 24.6845 111.54 23.5976Z" fill="#2F2B29"/>
<path d="M124.397 31.582H118.353V8.96669H124.397V31.582ZM117.999 3.1143C117.999 2.20858 118.298 1.4631 118.895 0.877858C119.506 0.292619 120.333 0 121.375 0C122.403 0 123.223 0.292619 123.834 0.877858C124.446 1.4631 124.751 2.20858 124.751 3.1143C124.751 4.03396 124.439 4.78641 123.814 5.37165C123.202 5.95689 122.389 6.24951 121.375 6.24951C120.361 6.24951 119.541 5.95689 118.916 5.37165C118.305 4.78641 117.999 4.03396 117.999 3.1143Z" fill="#2F2B29"/>
<path d="M137.963 25.3325C137.963 24.5939 137.595 24.0157 136.858 23.5976C136.136 23.1657 134.969 22.7825 133.357 22.4481C127.994 21.3194 125.312 19.0342 125.312 15.5924C125.312 13.5859 126.139 11.9138 127.793 10.5761C129.46 9.22447 131.634 8.54866 134.316 8.54866C137.178 8.54866 139.464 9.22447 141.172 10.5761C142.895 11.9277 143.757 13.6834 143.757 15.8432H137.734C137.734 14.9793 137.456 14.2687 136.9 13.7113C136.344 13.14 135.476 12.8543 134.295 12.8543C133.281 12.8543 132.496 13.0843 131.94 13.5441C131.384 14.0039 131.106 14.5892 131.106 15.2998C131.106 15.9686 131.419 16.5121 132.044 16.9301C132.683 17.3342 133.753 17.6895 135.254 17.9961C136.754 18.2887 138.019 18.6231 139.047 18.9993C142.228 20.1698 143.819 22.1973 143.819 25.0816C143.819 27.1439 142.937 28.816 141.172 30.098C139.408 31.366 137.129 32 134.337 32C132.447 32 130.766 31.6656 129.293 30.9967C127.834 30.314 126.688 29.3873 125.854 28.2169C125.021 27.0324 124.604 25.7575 124.604 24.3919H130.314C130.37 25.4648 130.766 26.287 131.502 26.8583C132.239 27.4296 133.225 27.7152 134.462 27.7152C135.615 27.7152 136.483 27.4992 137.067 27.0673C137.664 26.6214 137.963 26.0431 137.963 25.3325Z" fill="#2F2B29"/>
<path d="M163.7 23.3677L166.659 8.96669H172.474L166.722 31.582H161.678L157.406 17.3481L153.134 31.582H148.111L142.359 8.96669H148.173L151.112 23.3468L155.238 8.96669H159.594L163.7 23.3677Z" fill="#2F2B29"/>
<path d="M184.914 31.582C184.636 31.0385 184.435 30.3627 184.31 29.5545C182.851 31.1848 180.955 32 178.62 32C176.411 32 174.577 31.359 173.118 30.0771C171.673 28.7951 170.951 27.1787 170.951 25.228C170.951 22.8313 171.833 20.9919 173.598 19.71C175.376 18.428 177.94 17.7801 181.288 17.7662H184.06V16.4703C184.06 15.4252 183.789 14.5892 183.247 13.9621C182.719 13.3351 181.879 13.0216 180.725 13.0216C179.711 13.0216 178.912 13.2654 178.329 13.7531C177.759 14.2408 177.474 14.9096 177.474 15.7596H171.451C171.451 14.4498 171.854 13.2375 172.66 12.1228C173.466 11.0081 174.605 10.1372 176.078 9.51012C177.551 8.86915 179.204 8.54866 181.038 8.54866C183.817 8.54866 186.019 9.25234 187.645 10.6597C189.284 12.0531 190.104 14.0179 190.104 16.5539V26.3566C190.118 28.5025 190.416 30.1258 191 31.2266V31.582H184.914ZM179.933 27.3808C180.823 27.3808 181.642 27.1857 182.393 26.7956C183.143 26.3915 183.699 25.855 184.06 25.1862V21.2985H181.809C178.794 21.2985 177.189 22.3436 176.995 24.4337L176.974 24.789C176.974 25.5415 177.238 26.1615 177.766 26.6492C178.294 27.1369 179.016 27.3808 179.933 27.3808Z" fill="#2F2B29"/>
<mask id="mask2" mask-type="alpha" maskUnits="userSpaceOnUse" x="94" y="0" width="97" height="32">
<path d="M111.54 23.5976C111.54 22.4132 111.123 21.5075 110.289 20.8805C109.456 20.2395 107.955 19.5707 105.788 18.8739C103.62 18.1633 101.904 17.4666 100.64 16.7838C97.1944 14.9166 95.4715 12.4015 95.4715 9.23841C95.4715 7.59416 95.93 6.13107 96.847 4.84912C97.7779 3.55323 99.1048 2.543 100.828 1.81842C102.564 1.09384 104.51 0.731548 106.663 0.731548C108.831 0.731548 110.762 1.12867 112.457 1.92293C114.152 2.70324 115.465 3.81102 116.396 5.24624C117.341 6.68147 117.813 8.31178 117.813 10.1372H111.561C111.561 8.74374 111.123 7.66384 110.248 6.89745C109.372 6.11713 108.143 5.72698 106.559 5.72698C105.031 5.72698 103.843 6.05443 102.995 6.70934C102.148 7.35032 101.724 8.2003 101.724 9.25931C101.724 10.2486 102.217 11.0777 103.204 11.7466C104.204 12.4154 105.67 13.0425 107.601 13.6277C111.158 14.7006 113.749 16.0314 115.375 17.6199C117 19.2084 117.813 21.187 117.813 23.5558C117.813 26.1894 116.82 28.2587 114.833 29.7636C112.846 31.2545 110.171 32 106.809 32C104.475 32 102.349 31.575 100.432 30.725C98.5143 29.8611 97.0485 28.6836 96.0342 27.1927C95.0339 25.7017 94.5337 23.9739 94.5337 22.0091H100.807C100.807 25.3673 102.808 27.0464 106.809 27.0464C108.296 27.0464 109.456 26.7468 110.289 26.1476C111.123 25.5345 111.54 24.6845 111.54 23.5976Z" fill="#2F2B29"/>
<path d="M124.397 31.582H118.353V8.96669H124.397V31.582ZM117.999 3.1143C117.999 2.20858 118.298 1.4631 118.895 0.877858C119.506 0.292619 120.333 0 121.375 0C122.403 0 123.223 0.292619 123.834 0.877858C124.446 1.4631 124.751 2.20858 124.751 3.1143C124.751 4.03396 124.439 4.78641 123.814 5.37165C123.202 5.95689 122.389 6.24951 121.375 6.24951C120.361 6.24951 119.541 5.95689 118.916 5.37165C118.305 4.78641 117.999 4.03396 117.999 3.1143Z" fill="#2F2B29"/>
<path d="M137.963 25.3325C137.963 24.5939 137.595 24.0157 136.858 23.5976C136.136 23.1657 134.969 22.7825 133.357 22.4481C127.994 21.3194 125.312 19.0342 125.312 15.5924C125.312 13.5859 126.139 11.9138 127.793 10.5761C129.46 9.22447 131.634 8.54866 134.316 8.54866C137.178 8.54866 139.464 9.22447 141.172 10.5761C142.895 11.9277 143.757 13.6834 143.757 15.8432H137.734C137.734 14.9793 137.456 14.2687 136.9 13.7113C136.344 13.14 135.476 12.8543 134.295 12.8543C133.281 12.8543 132.496 13.0843 131.94 13.5441C131.384 14.0039 131.106 14.5892 131.106 15.2998C131.106 15.9686 131.419 16.5121 132.044 16.9301C132.683 17.3342 133.753 17.6895 135.254 17.9961C136.754 18.2887 138.019 18.6231 139.047 18.9993C142.228 20.1698 143.819 22.1973 143.819 25.0816C143.819 27.1439 142.937 28.816 141.172 30.098C139.408 31.366 137.129 32 134.337 32C132.447 32 130.766 31.6656 129.293 30.9967C127.834 30.314 126.688 29.3873 125.854 28.2169C125.021 27.0324 124.604 25.7575 124.604 24.3919H130.314C130.37 25.4648 130.766 26.287 131.502 26.8583C132.239 27.4296 133.225 27.7152 134.462 27.7152C135.615 27.7152 136.483 27.4992 137.067 27.0673C137.664 26.6214 137.963 26.0431 137.963 25.3325Z" fill="#2F2B29"/>
<path d="M163.7 23.3677L166.659 8.96669H172.474L166.722 31.582H161.678L157.406 17.3481L153.134 31.582H148.111L142.359 8.96669H148.173L151.112 23.3468L155.238 8.96669H159.594L163.7 23.3677Z" fill="#2F2B29"/>
<path d="M184.914 31.582C184.636 31.0385 184.435 30.3627 184.31 29.5545C182.851 31.1848 180.955 32 178.62 32C176.411 32 174.577 31.359 173.118 30.0771C171.673 28.7951 170.951 27.1787 170.951 25.228C170.951 22.8313 171.833 20.9919 173.598 19.71C175.376 18.428 177.94 17.7801 181.288 17.7662H184.06V16.4703C184.06 15.4252 183.789 14.5892 183.247 13.9621C182.719 13.3351 181.879 13.0216 180.725 13.0216C179.711 13.0216 178.912 13.2654 178.329 13.7531C177.759 14.2408 177.474 14.9096 177.474 15.7596H171.451C171.451 14.4498 171.854 13.2375 172.66 12.1228C173.466 11.0081 174.605 10.1372 176.078 9.51012C177.551 8.86915 179.204 8.54866 181.038 8.54866C183.817 8.54866 186.019 9.25234 187.645 10.6597C189.284 12.0531 190.104 14.0179 190.104 16.5539V26.3566C190.118 28.5025 190.416 30.1258 191 31.2266V31.582H184.914ZM179.933 27.3808C180.823 27.3808 181.642 27.1857 182.393 26.7956C183.143 26.3915 183.699 25.855 184.06 25.1862V21.2985H181.809C178.794 21.2985 177.189 22.3436 176.995 24.4337L176.974 24.789C176.974 25.5415 177.238 26.1615 177.766 26.6492C178.294 27.1369 179.016 27.3808 179.933 27.3808Z" fill="#2F2B29"/>
</mask>
<g mask="url(#mask2)">
<path d="M118.222 7.02905H109.766C109.471 7.54057 108.88 8.61207 108.88 8.80591C108.88 8.99974 110.115 10.4481 110.733 11.1481L118.222 10.9866V7.02905Z" fill="#F19933"/>
<path d="M191.587 29.5628H184.259V30.6127C184.313 31.1243 184.436 32.1635 184.501 32.2281C184.565 32.2927 189.413 33.0088 191.829 33.3588L191.587 29.5628Z" fill="#F19933"/>
</g>
</svg>
