<svg width="203" height="32" viewBox="0 0 203 32" fill="none" xmlns="http://www.w3.org/2000/svg">
<path fill-rule="evenodd" clip-rule="evenodd" d="M84.6825 9.82007H79.043V17.3787H71.0645V23.0182H79.043V30.8159H84.6825V23.0182H92.0603V17.3787H84.6825V9.82007Z" fill="#F19933"/>
<mask id="mask0" mask-type="alpha" maskUnits="userSpaceOnUse" x="79" y="9" width="6" height="22">
<rect x="79.043" y="9.82007" width="5.63949" height="20.9959" fill="white"/>
</mask>
<g mask="url(#mask0)">
<path d="M87.4406 14.019H76.9426L77.7938 8.02015L86.8731 7.30029L87.4406 14.019Z" fill="#2F2B29"/>
</g>
<path d="M22.166 19.8457C22.166 17.645 22.5898 15.6835 23.4372 13.9611C24.2847 12.2388 25.5013 10.9061 27.0869 9.96291C28.6862 9.01974 30.5384 8.54815 32.6434 8.54815C35.637 8.54815 38.0769 9.46398 39.9633 11.2957C41.8633 13.1273 42.9227 15.6151 43.1414 18.759L43.1824 20.2763C43.1824 23.6799 42.2324 26.4138 40.3323 28.4778C38.4323 30.5282 35.883 31.5534 32.6844 31.5534C29.4859 31.5534 26.9297 30.5282 25.016 28.4778C23.116 26.4274 22.166 23.6389 22.166 20.1123V19.8457ZM28.0916 20.2763C28.0916 22.3814 28.488 23.9943 29.2808 25.1152C30.0736 26.2224 31.2082 26.776 32.6844 26.776C34.1197 26.776 35.2406 26.2292 36.0471 25.1357C36.8535 24.0285 37.2568 22.2652 37.2568 19.8457C37.2568 17.7817 36.8535 16.1824 36.0471 15.0478C35.2406 13.9133 34.106 13.346 32.6434 13.346C31.1945 13.346 30.0736 13.9133 29.2808 15.0478C28.488 16.1687 28.0916 17.9115 28.0916 20.2763Z" fill="#F19933"/>
<path d="M50.0315 31.1433H44.0854V8.95822H50.0315V31.1433ZM43.7368 3.21717C43.7368 2.32867 44.0307 1.59737 44.6185 1.02327C45.2199 0.449162 46.0332 0.162109 47.0584 0.162109C48.0699 0.162109 48.8764 0.449162 49.4779 1.02327C50.0793 1.59737 50.38 2.32867 50.38 3.21717C50.38 4.11934 50.0725 4.85747 49.4574 5.43158C48.8559 6.00568 48.0563 6.29273 47.0584 6.29273C46.0606 6.29273 45.2541 6.00568 44.639 5.43158C44.0375 4.85747 43.7368 4.11934 43.7368 3.21717Z" fill="#F19933"/>
<path d="M56.9642 8.95822V10.87C57.7573 8.54815 60.5114 8.54815 63.1769 8.54815C65.528 8.54815 67.2776 9.23844 68.4258 10.619C69.574 11.9996 70.1618 14.0637 70.1891 16.8112V31.1433H64.2636V16.9547C64.2636 15.6971 63.9902 14.7881 63.4434 14.2277C62.8966 13.6536 61.9876 13.3665 60.7164 13.3665C59.0488 13.3665 57.798 14.0773 56.9642 15.4989V31.1433H51.0386V8.95822H56.9642Z" fill="#F19933"/>
<path d="M6.15113 31.6459V20.7174H11.5436C15.0839 20.7174 17.8519 19.8767 19.8476 18.1954C21.857 16.5004 22.8617 14.1903 22.8617 11.2651C22.8617 9.33778 22.4038 7.6223 21.4879 6.11869C20.5721 4.60142 19.2599 3.4327 17.5512 2.61255C15.8562 1.7924 13.8879 1.38232 11.6461 1.38232H0L6.15113 6.36474H11.7897C13.3069 6.39208 14.4962 6.85683 15.3573 7.75899C16.2185 8.66116 16.6491 9.84354 16.6491 11.3061C16.6491 12.7277 16.2185 13.8213 15.3573 14.5867C14.5098 15.3522 13.2728 15.735 11.6461 15.735H6.15113C2.5109 15.735 0 17.0902 0 20.7174V31.6459H6.15113Z" fill="#F19933"/>
<mask id="mask1" mask-type="alpha" maskUnits="userSpaceOnUse" x="0" y="1" width="23" height="31">
<path d="M6.15113 31.6459V20.7174H11.5436C15.0839 20.7174 17.8519 19.8767 19.8476 18.1954C21.857 16.5004 22.8617 14.1903 22.8617 11.2651C22.8617 9.33779 22.4038 7.6223 21.4879 6.11869C20.5721 4.60142 19.2599 3.4327 17.5512 2.61255C15.8562 1.7924 13.8879 1.38232 11.6461 1.38232H0C0 3.23979 1.94392 6.36474 6.15113 6.36474H11.7897C13.3069 6.39208 14.4962 6.85683 15.3573 7.75899C16.2185 8.66116 16.6491 9.84354 16.6491 11.3061C16.6491 12.7277 16.2185 13.8213 15.3573 14.5867C14.5098 15.3522 13.2728 15.735 11.6461 15.735H6.15113L0 20.7174V31.6459H6.15113Z" fill="#544035"/>
</mask>
<g mask="url(#mask1)">
<path d="M6.1581 0.372168V6.67092L-2.24025 8.98047L-3.29004 -1.72742L6.1581 0.372168Z" fill="#2F2B29"/>
</g>
<path d="M112.774 25.9949H102.882C102.882 25.9949 102.535 27.4209 100.841 28.9563C98.6091 30.9789 93.4421 31.5887 93.4421 31.5887L104.424 1.64524H111.211L122.275 31.5887C122.275 31.5887 116.256 31.5608 114.205 28.9563C113.41 27.9471 112.774 25.9949 112.774 25.9949ZM104.609 20.4216H111.046L107.817 10.036L104.609 20.4216Z" fill="#2F2B29"/>
<path d="M119.913 20.2982C119.913 16.7746 120.674 13.9983 122.196 11.9692C123.718 9.94002 125.843 8.92545 128.571 8.92545C130.559 8.92545 132.232 9.70694 133.589 11.2699V0H140.541V31.5887H134.309L133.96 29.2031C132.534 31.0677 130.724 32 128.53 32C125.884 32 123.786 30.9854 122.237 28.9563C120.688 26.9272 119.913 24.0411 119.913 20.2982ZM126.844 20.7301C126.844 24.6787 127.996 26.653 130.299 26.653C131.834 26.653 132.931 26.0086 133.589 24.7198V16.2468C132.959 14.9306 131.876 14.2725 130.34 14.2725C128.201 14.2725 127.043 16 126.864 19.455L126.844 20.7301Z" fill="#2F2B29"/>
<path d="M147.66 9.33676L147.886 11.9486C149.462 9.93316 151.581 8.92545 154.24 8.92545C157.051 8.92545 158.95 10.0428 159.937 12.2776C161.445 10.0428 163.625 8.92545 166.477 8.92545C170.988 8.92545 173.305 11.6538 173.428 17.1105V31.5887H166.477V17.5424C166.477 16.4045 166.285 15.575 165.901 15.054C165.517 14.533 164.818 14.2725 163.803 14.2725C162.432 14.2725 161.411 14.8826 160.739 16.1028L160.76 16.3907V31.5887H153.809V17.5835C153.809 16.4182 153.624 15.575 153.253 15.054C152.883 14.533 152.177 14.2725 151.135 14.2725C149.805 14.2725 148.791 14.8826 148.091 16.1028V31.5887H141.161V9.33676H147.66Z" fill="#2F2B29"/>
<path d="M181.329 31.5887H174.377V9.33676H181.329V31.5887ZM173.966 3.59897C173.966 2.61183 174.323 1.80291 175.036 1.17224C175.748 0.54156 176.674 0.226221 177.812 0.226221C178.95 0.226221 179.875 0.54156 180.588 1.17224C181.301 1.80291 181.658 2.61183 181.658 3.59897C181.658 4.58612 181.301 5.39503 180.588 6.02571C179.875 6.65638 178.95 6.97172 177.812 6.97172C176.674 6.97172 175.748 6.65638 175.036 6.02571C174.323 5.39503 173.966 4.58612 173.966 3.59897Z" fill="#2F2B29"/>
<path d="M188.612 9.33676L188.838 11.9486C190.374 9.93316 192.492 8.92545 195.193 8.92545C197.51 8.92545 199.238 9.61782 200.376 11.0026C201.527 12.3873 202.124 14.4713 202.165 17.2545V31.5887H195.214V17.5424C195.214 16.4182 194.987 15.5955 194.535 15.0746C194.083 14.5398 193.26 14.2725 192.067 14.2725C190.71 14.2725 189.702 14.8072 189.044 15.8766V31.5887H182.113V9.33676H188.612Z" fill="#2F2B29"/>
<mask id="mask2" mask-type="alpha" maskUnits="userSpaceOnUse" x="93" y="0" width="110" height="32">
<path d="M112.774 25.9949H102.882C102.882 25.9949 102.535 27.4209 100.841 28.9563C98.6091 30.9789 93.4421 31.5887 93.4421 31.5887L104.424 1.64524H111.211L122.275 31.5887C122.275 31.5887 116.256 31.5608 114.205 28.9563C113.41 27.9471 112.774 25.9949 112.774 25.9949ZM104.609 20.4216H111.046L107.817 10.036L104.609 20.4216Z" fill="#2F2B29"/>
<path d="M119.913 20.2982C119.913 16.7746 120.674 13.9983 122.196 11.9692C123.718 9.94002 125.843 8.92545 128.571 8.92545C130.559 8.92545 132.232 9.70694 133.589 11.2699V0H140.541V31.5887H134.309L133.96 29.2031C132.534 31.0677 130.724 32 128.53 32C125.884 32 123.786 30.9854 122.237 28.9563C120.688 26.9272 119.913 24.0411 119.913 20.2982ZM126.844 20.7301C126.844 24.6787 127.996 26.653 130.299 26.653C131.834 26.653 132.931 26.0086 133.589 24.7198V16.2468C132.959 14.9306 131.876 14.2725 130.34 14.2725C128.201 14.2725 127.043 16 126.864 19.455L126.844 20.7301Z" fill="#2F2B29"/>
<path d="M147.66 9.33676L147.886 11.9486C149.462 9.93316 151.581 8.92545 154.24 8.92545C157.051 8.92545 158.95 10.0428 159.937 12.2776C161.445 10.0428 163.625 8.92545 166.477 8.92545C170.988 8.92545 173.305 11.6538 173.428 17.1105V31.5887H166.477V17.5424C166.477 16.4045 166.285 15.575 165.901 15.054C165.517 14.533 164.818 14.2725 163.803 14.2725C162.432 14.2725 161.411 14.8826 160.739 16.1028L160.76 16.3907V31.5887H153.809V17.5835C153.809 16.4182 153.624 15.575 153.253 15.054C152.883 14.533 152.177 14.2725 151.135 14.2725C149.805 14.2725 148.791 14.8826 148.091 16.1028V31.5887H141.161V9.33676H147.66Z" fill="#2F2B29"/>
<path d="M181.329 31.5887H174.377V9.33676H181.329V31.5887ZM173.966 3.59897C173.966 2.61183 174.323 1.80291 175.036 1.17224C175.748 0.54156 176.674 0.226221 177.812 0.226221C178.95 0.226221 179.875 0.54156 180.588 1.17224C181.301 1.80291 181.658 2.61183 181.658 3.59897C181.658 4.58612 181.301 5.39503 180.588 6.02571C179.875 6.65638 178.95 6.97172 177.812 6.97172C176.674 6.97172 175.748 6.65638 175.036 6.02571C174.323 5.39503 173.966 4.58612 173.966 3.59897Z" fill="#2F2B29"/>
<path d="M188.612 9.33676L188.838 11.9486C190.374 9.93316 192.492 8.92545 195.193 8.92545C197.51 8.92545 199.238 9.61782 200.376 11.0026C201.527 12.3873 202.124 14.4713 202.165 17.2545V31.5887H195.214V17.5424C195.214 16.4182 194.987 15.5955 194.535 15.0746C194.083 14.5398 193.26 14.2725 192.067 14.2725C190.71 14.2725 189.702 14.8072 189.044 15.8766V31.5887H182.113V9.33676H188.612Z" fill="#2F2B29"/>
</mask>
<g mask="url(#mask2)">
<path d="M114.61 5.34564H100.76L100.112 -0.891094C104.297 -1.72806 112.844 -3.4182 113.557 -3.48299C114.27 -3.54779 114.556 2.37576 114.61 5.34564Z" fill="#F19933"/>
<path d="M202.816 28.0247H194.797L193.906 32.3175L195.607 32.6415L203.14 34.0995L202.816 28.0247Z" fill="#F19933"/>
</g>
</svg>
