<svg width="36" height="36" viewBox="0 0 36 36" fill="none" xmlns="http://www.w3.org/2000/svg">
<circle r="18" transform="matrix(1 0 0 -1 18 18)" fill="#363636"/>
<path d="M24.5249 9.09403C24.876 8.6677 25.5063 8.60671 25.9326 8.95781C26.3589 9.3089 26.4199 9.93912 26.0688 10.3654L24.5249 9.09403ZM11.7716 27.2656C11.2219 27.3188 10.7331 26.9163 10.6799 26.3666L9.81299 17.4085C9.75979 16.8587 10.1623 16.37 10.712 16.3168C11.2617 16.2636 11.7505 16.6661 11.8037 17.2158L12.5743 25.1786L20.5371 24.408C21.0868 24.3548 21.5756 24.7573 21.6288 25.307C21.682 25.8568 21.2794 26.3455 20.7297 26.3987L11.7716 27.2656ZM26.0688 10.3654L12.4472 26.906L10.9033 25.6346L24.5249 9.09403L26.0688 10.3654Z" fill="white"/>
</svg>
