<svg width="76" height="76" viewBox="0 0 76 76" fill="none" xmlns="http://www.w3.org/2000/svg">
<path d="M26.485 25.586H27.474L28.0744 24.8001C39.1794 10.2624 55.5942 2 67.4802 2H74V8.52044C74 20.4018 65.7381 36.8238 51.2016 47.9296L50.4158 48.5299V49.5188V58.965C50.4158 64.5546 46.3179 67.9683 41.0449 70.6021L41.0435 70.6028L36.7277 72.7626V58.965V58.1366L36.142 57.5509L27.2979 48.7061L18.4538 39.8614L17.868 39.2755H17.0396H3.23951L5.40228 34.9602L5.40277 34.9592C8.04358 29.683 11.4511 25.586 17.0396 25.586H26.485ZM10.2954 67.6599C9.39054 67.9182 8.53739 68.1235 7.79015 68.284C7.98069 67.4741 8.22125 66.5413 8.51548 65.5563C9.44987 62.4282 10.8122 59.1766 12.5578 57.4309L14.0915 55.897L20.1073 61.9133L18.5733 63.4474C16.5835 65.4373 13.3129 66.7988 10.2954 67.6599ZM57.9992 18.0024C56.5184 16.5215 54.51 15.6895 52.4158 15.6895C50.3216 15.6895 48.3132 16.5215 46.8324 18.0024C45.3517 19.4833 44.5198 21.4918 44.5198 23.586C44.5198 25.6802 45.3517 27.6887 46.8324 29.1696C48.3132 30.6505 50.3216 31.4825 52.4158 31.4825C54.51 31.4825 56.5184 30.6505 57.9992 29.1696C59.48 27.6887 60.3119 25.6802 60.3119 23.586C60.3119 21.4918 59.48 19.4833 57.9992 18.0024Z" stroke="#656360" stroke-width="4"/>
</svg>
