<svg width="36" height="36" viewBox="0 0 36 36" fill="none" xmlns="http://www.w3.org/2000/svg">
<circle r="18" transform="matrix(1 0 0 -1 18 18)" fill="#F19933"/>
<path d="M24.5249 26.906C24.876 27.3323 25.5063 27.3933 25.9326 27.0422C26.3589 26.6911 26.4199 26.0609 26.0688 25.6346L24.5249 26.906ZM11.7716 8.73437C11.2219 8.68117 10.7331 9.08368 10.6799 9.6334L9.81299 18.5915C9.75979 19.1413 10.1623 19.63 10.712 19.6832C11.2617 19.7364 11.7505 19.3339 11.8037 18.7842L12.5743 10.8214L20.5371 11.592C21.0868 11.6452 21.5756 11.2427 21.6288 10.693C21.682 10.1432 21.2794 9.65449 20.7297 9.60129L11.7716 8.73437ZM26.0688 25.6346L12.4472 9.09402L10.9033 10.3654L24.5249 26.906L26.0688 25.6346Z" fill="white"/>
</svg>
